<?xml version="1.0" standalone="no"?>
<!DOCTYPE svg PUBLIC "-//W3C//DTD SVG 1.1//EN" "http://www.w3.org/Graphics/SVG/1.1/DTD/svg11.dtd" >
<!--
2013-9-30: Created.
-->
<svg>
<metadata>
Created by iconfont
</metadata>
<defs>

<font id="iconfont" horiz-adv-x="1024" >
  <font-face
    font-family="iconfont"
    font-weight="500"
    font-stretch="normal"
    units-per-em="1024"
    ascent="896"
    descent="-128"
  />
    <missing-glyph />
    
    <glyph glyph-name="xuanzekuangmoren" unicode="&#59128;" d="M511.8976-95.0272c-64.7168 0-127.3856 12.6976-186.4704 37.6832-57.0368 24.1664-108.3392 58.6752-152.2688 102.7072-44.032 44.032-78.5408 95.232-102.7072 152.2688C45.4656 256.7168 32.768 319.488 32.768 384.2048c0 64.7168 12.6976 127.3856 37.6832 186.4704 24.1664 57.0368 58.6752 108.3392 102.7072 152.2688 44.032 44.032 95.232 78.5408 152.2688 102.7072 59.0848 24.9856 121.856 37.6832 186.4704 37.6832 64.7168 0 127.3856-12.6976 186.4704-37.6832 57.0368-24.1664 108.3392-58.6752 152.2688-102.7072 44.032-44.032 78.5408-95.232 102.7072-152.2688 24.9856-59.0848 37.6832-121.856 37.6832-186.4704 0-64.7168-12.6976-127.3856-37.6832-186.4704-24.1664-57.0368-58.6752-108.3392-102.7072-152.2688-44.032-44.032-95.232-78.5408-152.2688-102.7072C639.3856-82.3296 576.6144-95.0272 511.8976-95.0272L511.8976-95.0272zM511.8976 824.6272c-59.4944 0-117.1456-11.6736-171.4176-34.6112-52.4288-22.2208-99.5328-53.9648-139.9808-94.4128-40.448-40.448-72.192-87.552-94.4128-139.9808-22.9376-54.272-34.6112-111.9232-34.6112-171.4176 0-59.4944 11.6736-117.1456 34.6112-171.4176 22.2208-52.4288 53.9648-99.5328 94.4128-139.9808 40.448-40.448 87.552-72.192 139.9808-94.4128 54.272-22.9376 111.9232-34.6112 171.4176-34.6112 59.4944 0 117.1456 11.6736 171.4176 34.6112 52.4288 22.2208 99.5328 53.9648 139.9808 94.4128 40.448 40.448 72.192 87.552 94.4128 139.9808 22.9376 54.272 34.6112 111.9232 34.6112 171.4176 0 59.4944-11.6736 117.1456-34.6112 171.4176-22.2208 52.4288-53.9648 99.5328-94.4128 139.9808-40.448 40.448-87.552 72.192-139.9808 94.4128C629.0432 812.9536 571.392 824.6272 511.8976 824.6272L511.8976 824.6272zM511.8976 824.6272"  horiz-adv-x="1024" />

    
    <glyph glyph-name="xuanzekuangxuanzhong" unicode="&#59000;" d="M511.999998 895.909953c-282.740832 0-511.954977-229.203912-511.954977-511.954977 0-282.740832 229.214145-511.954977 511.954977-511.954977 282.751064 0 511.954977 229.214145 511.954977 511.954977C1023.954975 666.705018 794.750039 895.909953 511.999998 895.909953zM773.35676 476.83928 483.091903 186.584657c-12.478645-12.498087-32.751456-12.498087-45.249543 0L250.59412 373.842106c-12.488878 12.498087-12.488878 32.751456 0 45.249543 12.498087 12.498087 32.751456 12.498087 45.268985 0l164.605562-164.631143 267.619108 267.619108c12.517529 12.498087 32.761689 12.498087 45.268985 0C785.835405 509.59176 785.835405 489.337368 773.35676 476.83928z"  horiz-adv-x="1024" />

    
    <glyph glyph-name="kejian" unicode="&#58912;" d="M511.318 726.655c-307.487 0-465.357-309.889-465.357-309.889s119.13-309.929 465.357-309.929c313.542 0 465.336 308.722 465.336 308.722s-153.005 311.095-465.336 311.095v0zM512.019 223.068c-112.429 0-193.698 84.75-193.698 193.704 0 108.965 81.274 193.689 193.698 193.689 112.418 0 193.689-84.72 193.689-193.689 0.001-108.952-81.27-193.704-193.689-193.704v0zM512.019 532.996c-64.255-0.143-116.219-53.968-116.219-116.225 0-62.224 51.962-116.224 116.219-116.224 64.251 0 116.21 54 116.21 116.224 0.001 62.276-51.958 116.348-116.21 116.225v0zM512.019 532.996z"  horiz-adv-x="1024" />

    
    <glyph glyph-name="ok-copy" unicode="&#58883;" d="M512 778.401c-217.846 0-394.401-176.555-394.401-394.401s176.555-394.401 394.401-394.401 394.401 176.555 394.401 394.401c0 217.846-176.555 394.401-394.401 394.401zM470.445 182.766l-207.141 209.092 64.758 64.178 142.013-143.332 257.185 254.918 64.178-64.81-320.994-320.045z"  horiz-adv-x="1024" />

    
    <glyph glyph-name="fenxiang1" unicode="&#58899;" d="M841.143 274.286c-59.928 0-112.607-29.215-145.964-73.714l-264.572 124.464c5.25 18.785 8.25 38.5 8.25 58.964s-3 40.18-8.25 58.964l264.572 124.464c33.357-44.499 86.036-73.714 145.964-73.714 101 0 182.857 81.858 182.857 182.857s-81.858 182.859-182.857 182.859-182.857-81.86-182.857-182.86c0-14.893 2.285-29.143 5.606-43l-264.356-124.391c-39.644 56.928-105.465 94.25-180.107 94.25-121.215 0-219.429-98.215-219.429-219.429s98.214-219.429 219.429-219.429c74.642 0 140.463 37.322 180.107 94.25l264.356-124.391c-3.32-13.857-5.606-28.107-5.606-43 0-101 81.858-182.858 182.857-182.858s182.857 81.858 182.857 182.858-81.858 182.857-182.857 182.857zM841.143 786.286c60.5 0 109.714-49.214 109.714-109.715s-49.214-109.714-109.714-109.714-109.714 49.214-109.714 109.714 49.214 109.715 109.714 109.715zM219.429 237.714c-80.644 0-146.286 65.642-146.286 146.286s65.642 146.286 146.286 146.286 146.285-65.642 146.285-146.286-65.642-146.286-146.284-146.286zM841.143-18.286c-60.5 0-109.714 49.214-109.714 109.715s49.214 109.714 109.714 109.714 109.714-49.214 109.714-109.714-49.214-109.715-109.714-109.715z"  horiz-adv-x="1024" />

    
    <glyph glyph-name="daochufffpx" unicode="&#58889;" d="M591 10.7H136.7V757.3H591v-186.7h72.7V746.1c0 47.4-37.4 85.9-83.6 85.9H147.6C101.4 832 64 793.5 64 746.1v-724.3c0-47.4 37.4-85.9 83.6-85.9h432.5c46.2 0 83.6 38.5 83.6 85.9V197.3H591v-186.6z m324.7 415.6L758.2 588l-44.3-45.5 117.9-121.1H476.7v-74.7h361.4L713.9 219l44.3-45.5 168.6 173.2 33.2 34.1-44.3 45.5z"  horiz-adv-x="1024" />

    
    <glyph glyph-name="queren" unicode="&#58959;" d="M512 844.8c-253.44 0-460.8-207.36-460.8-460.8s207.36-460.8 460.8-460.8 460.8 207.36 460.8 460.8-207.36 460.8-460.8 460.8z m0-870.4c-225.28 0-409.6 184.32-409.6 409.6s184.32 409.6 409.6 409.6 409.6-184.32 409.6-409.6-184.32-409.6-409.6-409.6zM460.8 222.72c-12.8 0-25.6 5.12-35.84 15.36l-135.68 128c-10.24 10.24-10.24 25.6 0 35.84 10.24 10.24 25.6 10.24 35.84 0l135.68-128 238.08 230.4c10.24 10.24 25.6 10.24 35.84 0 10.24-10.24 10.24-25.6 0-35.84l-238.08-230.4c-10.24-10.24-23.04-15.36-35.84-15.36z"  horiz-adv-x="1024" />

    
    <glyph glyph-name="bukejian" unicode="&#59129;" d="M958.7 585.3c-25.5 50.6-73.5 50.9-88.1 27.8-76-119.8-223.3-227.8-358.4-227.8-141.3 0-311.7 131.3-360.1 234.7-11.2 24-63.5 10.6-86.4-34.7 31.1-61.6 74.4-115.1 125.9-158.9L129 326.8c-15.4-24.5-6.3-55.9 20.4-70.1 26.7-14.2 60.8-5.8 76.2 18.8l56 89.2c53.4-28.2 112.3-47.2 174.7-54.4v-115.6c0-30.8 25-55.8 55.8-55.8 30.9 0 55.8 25 55.8 55.8V310.3c62.4 7.1 121.3 26.1 174.7 54.4l56-89.2c15.4-24.5 49.6-32.9 76.2-18.8 26.7 14.2 35.9 45.5 20.4 70.1l-62.6 99.6c51.7 43.8 95 97.4 126.1 158.9z"  horiz-adv-x="1024" />

    
    <glyph glyph-name="shuaxin" unicode="&#58974;" d="M933.8 355.9c-15.3 2.1-29.4-8.7-31.5-24-28.8-214.5-226-365.2-440.6-336.4s-365.2 226-336.4 440.6c28.8 214.6 226 365.2 440.6 336.4 113.2-15.2 208-77.7 268.5-164.5H681.8c-15.5 0-28-12.5-28-28s12.5-28 28-28h195.8c30.9 0 56.2 25.2 56.2 56.2V804c0 15.5-12.5 28-28 28s-28-12.5-28-28l-0.1-160.5C808.4 740.9 701.3 810.8 573.4 828 328.2 860.9 102.8 688.7 69.9 443.5 37 198.3 209.1-27.1 454.3-60S925 79.3 957.9 324.5c2 15.3-8.7 29.4-24.1 31.4z"  horiz-adv-x="1024" />

    
    <glyph glyph-name="xuanzhong4" unicode="&#58880;" d="M513.525238 896C231.624846 896 3.069407 667.5018660000001 3.069407 385.545192s228.555439-510.454808 510.454808-510.454808c281.898345 0 510.453784 228.556463 510.453784 510.454808C1023.979022 667.443537 795.42256 896 513.525238 896zM764.639462 510.605489C684.634314 402.683525 604.620979 294.630576 524.614807 186.70963500000005c-16.693194-22.560832-55.583946-38.817074-83.120093-19.750833-57.577347 39.756469-115.089202 79.502705-172.601056 119.200846-26.301016 18.192338-40.125883 47.228651-21.809725 75.580373 15.202237 23.61586 56.704466 38.075177 83.186607 19.816325 57.511855-39.688931 127.233799-87.923492 127.233799-87.923492 67.358107 90.913593 134.658909 181.829232 202.081485 272.677333C703.074292 625.011122 808.506553 569.798637 764.639462 510.605489z"  horiz-adv-x="1024" />

    
    <glyph glyph-name="pandianliebiao" unicode="&#59053;" d="M838.11 469.29a23.89 23.89 0 0 0-14 4.52L537.49 679.92l-0.76 0.57a40.15 40.15 0 0 1-49.48 0l-0.76-0.57-286.61-206.11a24 24 0 0 0-28 39l286.25 205.83a88.09 88.09 0 0 0 107.74 0l286.27-205.86a24 24 0 0 0-14-43.49zM470.82 31H330.71a88.31 88.31 0 0 0-88.21 88.21v374a24 24 0 0 0 48 0v-374A40.25 40.25 0 0 1 330.71 79h140.11a24 24 0 1 0 0-48zM757.49 288.8a24 24 0 0 0-24 24V493.24a24 24 0 0 0 48 0V312.8a24 24 0 0 0-24-24zM477.33 205.4H345.74a24 24 0 1 0 0 48h131.59a24 24 0 0 0 0-48zM678.26 295.53H345.74a24 24 0 1 0 0 48h332.52a24 24 0 0 0 0-48zM634.34 31a23.93 23.93 0 0 0-17 7l-99.65 99.65a24 24 0 0 0 33.94 33.94l82.68-82.68 186.85 186.85a24 24 0 0 0 33.94-33.94L651.31 38a23.93 23.93 0 0 0-16.97-7z"  horiz-adv-x="1024" />

    
    <glyph glyph-name="jia-yuan" unicode="&#59054;" d="M520 713c-181.7 0-329-147.3-329-329s147.3-329 329-329 329 147.3 329 329-147.3 329-329 329z m150-359H550v-120a30 30 0 0 0-60 0V354H370a30 30 0 0 0 0 60h120V534a30 30 0 0 0 60 0v-120h120a30 30 0 0 0 0-60z"  horiz-adv-x="1024" />

    
    <glyph glyph-name="saoyixia" unicode="&#59055;" d="M335 15H131V219h80v-124h124v-80zM869 15H665v80h124V219h80v-204zM869 549h-80V673H665v80h204v-204zM211 549h-80V753h204v-80H211v-124zM186 424h628v-80H186z"  horiz-adv-x="1024" />

    
    <glyph glyph-name="huaban" unicode="&#59056;" d="M792.93 83H359.16c-83.55 0-151.52 68-151.52 151.52S275.61 386 359.16 386h306.25a103.52 103.52 0 1 1 0 207H231.64a24 24 0 0 0 0 48h433.77c83.55 0 151.52-68 151.52-151.52S749 338 665.41 338H359.16a103.52 103.52 0 1 1 0-207h433.77a24 24 0 0 0 0-48zM729.41 9a24 24 0 0 0-17 41l57 57-57 57a24 24 0 1 0 33.94 33.94l74-74a24 24 0 0 0 0-33.94l-74-74a23.93 23.93 0 0 0-16.94-7zM305.59 519.09a23.93 23.93 0 0 0-17 7l-74 74a24 24 0 0 0 0 33.94l74 74A24 24 0 0 0 322.56 674l-57-57 57-57a24 24 0 0 0-17-41z"  horiz-adv-x="1024" />

    
    <glyph glyph-name="xianjinzhanghufuben" unicode="&#59057;" d="M716.09 431.76l-4 2.92-175 142.48-143.87 117.48-13.19 11c-7.93 4.42-16.51 7.34-25.74 7.34-30.4 0-54.82-27.15-54.82-61V116c0-33.8 24.42-61 54.82-61a52 52 0 0 1 29.7 9.55c1.33 0.72 2 2.2 3.3 2.94l150.52 121.9 175 142.48 4 3.67c13.22 11 21.8 28.63 21.8 48.47a66.9 66.9 0 0 1-22.44 47.74z"  horiz-adv-x="1024" />

    
    <glyph glyph-name="chukuliebiao" unicode="&#59058;" d="M838.11 469.29a23.89 23.89 0 0 0-14 4.52L537.49 679.92l-0.76 0.57a40.15 40.15 0 0 1-49.48 0l-0.76-0.57-286.61-206.11a24 24 0 0 0-28 39l286.25 205.83a88.09 88.09 0 0 0 107.74 0l286.27-205.86a24 24 0 0 0-14-43.49zM470.82 31H330.71a88.31 88.31 0 0 0-88.21 88.21v374a24 24 0 0 0 48 0v-374A40.25 40.25 0 0 1 330.71 79h140.11a24 24 0 1 0 0-48zM757.49 288.8a24 24 0 0 0-24 24V493.24a24 24 0 0 0 48 0V312.8a24 24 0 0 0-24-24zM825.18 128.79h-286a24 24 0 0 0 0 48h286a24 24 0 0 0 0-48zM745.6 37.15a24 24 0 0 0-17 40.94l75.67 76-75.68 76a24 24 0 1 0 34 33.88L855.13 171a24 24 0 0 0 0-33.87l-92.53-92.91a23.93 23.93 0 0 0-17-7.07zM477.33 205.4H345.74a24 24 0 1 0 0 48h131.59a24 24 0 0 0 0-48zM678.26 295.53H345.74a24 24 0 1 0 0 48h332.52a24 24 0 0 0 0-48z"  horiz-adv-x="1024" />

    
    <glyph glyph-name="xinjiankehu" unicode="&#59059;" d="M524 412.59c-87 0-157.74 70.76-157.74 157.74S437 728.07 524 728.07s157.74-70.76 157.74-157.74S611 412.59 524 412.59z m0 279.48a121.74 121.74 0 1 1 121.74-121.74A121.88 121.88 0 0 1 524 692.07zM668.73 34.07c-87 0-157.74 70.76-157.74 157.74s70.76 157.74 157.74 157.74 157.74-70.76 157.74-157.74-70.76-157.74-157.74-157.74z m0 279.48a121.74 121.74 0 1 1 121.74-121.74 121.88 121.88 0 0 1-121.74 121.74zM668.73 34.07H379.27c-87 0-157.74 70.76-157.74 157.74s70.76 157.74 157.74 157.74h289.46c87 0 157.74-70.76 157.74-157.74s-70.76-157.74-157.74-157.74zM379.27 313.55a121.74 121.74 0 0 1 0-243.48h289.46a121.74 121.74 0 0 1 0 243.48zM723.63 173.81h-109.8a18 18 0 1 0 0 36h109.8a18 18 0 0 0 0-36zM668.73 118.91a18 18 0 0 0-18 18v109.8a18 18 0 0 0 36 0v-109.8a18 18 0 0 0-18-18z"  horiz-adv-x="1024" />

    
    <glyph glyph-name="huabanfuben" unicode="&#59060;" d="M604.61 73H251a50.06 50.06 0 0 0-50 50V645a50.06 50.06 0 0 0 50 50h522a50.06 50.06 0 0 0 50-50v-351.61a18 18 0 0 1 36 0V645a86.1 86.1 0 0 1-86 86H251a86.1 86.1 0 0 1-86-86v-522a86.1 86.1 0 0 1 86-86h353.61a18 18 0 1 1 0 36zM853.73 67.73L580.46 341h122.86a18 18 0 0 1 0 36H539.56a18 18 0 0 1-13.61-6.25c-0.12-0.11-0.25-0.21-0.37-0.33a18 18 0 0 1-4-19.31v-161a18 18 0 0 1 36 0V313l270.69-270.73a18 18 0 0 1 25.46 25.46zM455.61 498.19a18 18 0 0 1 0 36h-168a18 18 0 0 1 0-36h66v-35.66h-66a18 18 0 0 1 0-36h66v-59.23a18 18 0 0 1 36 0v59.23h66a18 18 0 0 1 0 36h-66v35.66zM339.05 572.72v33.44a18 18 0 0 1-36 0v-33.44a18 18 0 0 1 36 0zM440.17 572.72v33.44a18 18 0 0 1-36 0v-33.44a18 18 0 0 1 36 0z"  horiz-adv-x="1024" />

    
    <glyph glyph-name="xianjinzhanghu" unicode="&#59061;" d="M519 713c-181.7 0-329-147.3-329-329s147.3-329 329-329 329 147.3 329 329-147.3 329-329 329z m39.5-179a24 24 0 0 0 48 0v-42a24 24 0 0 0-48 0z m-127 0a24 24 0 0 0 48 0v-42a24 24 0 0 0-48 0z m193-179a24 24 0 0 0 0-48H543v-73a24 24 0 0 0-48 0v73h-81.5a24 24 0 0 0 0 48H495v42h-81.5a24 24 0 0 0 0 48h211a24 24 0 0 0 0-48H543v-42z"  horiz-adv-x="1024" />

    
    <glyph glyph-name="jian-quan" unicode="&#59062;" d="M674 354H374a30 30 0 0 0 0 60h300a30 30 0 0 0 0-60zM524 25a358 358 0 1 0 139.75 28.22A356.78 356.78 0 0 0 524 25z m0 658a299 299 0 1 1 211.42-87.58A297 297 0 0 1 524 683z"  horiz-adv-x="1024" />

    
    <glyph glyph-name="tongxunlu" unicode="&#59063;" d="M678.55 366H368.23a18 18 0 0 0 0 36h310.32a18 18 0 1 0 0-36zM523.39 210.84a18 18 0 0 0-18 18V539.16a18 18 0 0 0 36 0v-310.32a18 18 0 0 0-18-18zM773.37 50.89h-500A83.22 83.22 0 0 0 190.28 134a18 18 0 0 0 36 0 47.18 47.18 0 0 1 47.13-47.13h500A47.18 47.18 0 0 1 820.5 134V634a47.18 47.18 0 0 1-47.13 47.13h-500A47.18 47.18 0 0 1 226.28 634a18 18 0 0 0-36 0 83.22 83.22 0 0 0 83.13 83.13h500A83.22 83.22 0 0 0 856.5 634v-500a83.22 83.22 0 0 0-83.13-83.11zM237 490.51h-56.5a18 18 0 0 0 0 36H237a18 18 0 1 0 0-36zM237 366h-56.5a18 18 0 0 0 0 36H237a18 18 0 1 0 0-36zM237 241.49h-56.5a18 18 0 0 0 0 36H237a18 18 0 1 0 0-36z"  horiz-adv-x="1024" />

    
    <glyph glyph-name="jian-yuan" unicode="&#59064;" d="M524 713c-181.7 0-329-147.3-329-329s147.3-329 329-329 329 147.3 329 329-147.3 329-329 329z m150-359H374a30 30 0 0 0 0 60h300a30 30 0 0 0 0-60z"  horiz-adv-x="1024" />

    
    <glyph glyph-name="xiaoshouyingshou" unicode="&#59065;" d="M524 412.59c-87 0-157.74 70.76-157.74 157.74S437 728.07 524 728.07s157.74-70.76 157.74-157.74S611 412.59 524 412.59z m0 279.48a121.74 121.74 0 1 1 121.74-121.74A121.88 121.88 0 0 1 524 692.07zM668.73 34.07c-87 0-157.74 70.76-157.74 157.74s70.76 157.74 157.74 157.74 157.74-70.76 157.74-157.74-70.76-157.74-157.74-157.74z m0 279.48a121.74 121.74 0 1 1 121.74-121.74 121.88 121.88 0 0 1-121.74 121.74zM668.73 34.07H379.27c-87 0-157.74 70.76-157.74 157.74s70.76 157.74 157.74 157.74h289.46c87 0 157.74-70.76 157.74-157.74s-70.76-157.74-157.74-157.74zM379.27 313.55a121.74 121.74 0 1 1 0-243.48h289.46a121.74 121.74 0 1 1 0 243.48zM714 196.3h-90.54a18 18 0 0 0 0 36H714a18 18 0 0 0 0-36zM714 139.42h-90.54a18 18 0 0 0 0 36H714a18 18 0 0 0 0-36zM668.73 97.2a18 18 0 0 0-18 18v91.48a18 18 0 0 0 36 0v-91.48a18 18 0 0 0-18-18zM638.47 249.86a18 18 0 0 0-18 18v0.55a18 18 0 0 0 36 0v-0.55a18 18 0 0 0-18-18zM699 249.86a18 18 0 0 0-18 18v0.55a18 18 0 0 0 36 0v-0.55a18 18 0 0 0-18-18z"  horiz-adv-x="1024" />

    
    <glyph glyph-name="bianji" unicode="&#59066;" d="M784.36 29.21H263.63a94.53 94.53 0 0 0-94.42 94.42V644.36a94.53 94.53 0 0 0 94.42 94.42H593a26 26 0 0 0 0-52H263.63a42.47 42.47 0 0 1-42.42-42.42v-520.73a42.47 42.47 0 0 1 42.42-42.42h520.73a42.47 42.47 0 0 1 42.42 42.42V449a26 26 0 0 0 52 0v-325.37a94.53 94.53 0 0 0-94.42-94.42zM439.17 273.17a26 26 0 0 0-18.38 44.38l361.83 361.83a26 26 0 0 0 36.77-36.77L457.55 280.78a25.92 25.92 0 0 0-18.38-7.61z"  horiz-adv-x="1024" />

    
    <glyph glyph-name="jia-quan" unicode="&#59067;" d="M674 414H554V534a30 30 0 0 1-60 0v-120H374a30 30 0 0 1 0-60h120v-120a30 30 0 0 1 60 0V354h120a30 30 0 0 1 0 60zM524 25a358 358 0 1 0 139.75 28.22A356.78 356.78 0 0 0 524 25z m0 658a299 299 0 1 1 211.42-87.58A297 297 0 0 1 524 683z"  horiz-adv-x="1024" />

    
    <glyph glyph-name="jian" unicode="&#59068;" d="M183 424h658v-80H183z"  horiz-adv-x="1024" />

    
    <glyph glyph-name="xia-san" unicode="&#59069;" d="M464.24 581.09l-2.92-4-142.48-175-117.48-143.87-11-13.19c-4.42-7.93-7.34-16.51-7.34-25.74 0-30.4 27.15-54.82 61-54.82H780c33.8 0 61 24.42 61 54.82a52 52 0 0 1-9.55 29.7c-0.72 1.33-2.2 2-2.94 3.3l-121.9 150.52-142.48 175-3.67 4c-11 13.22-28.63 21.8-48.47 21.8a66.9 66.9 0 0 1-47.74-22.44z"  horiz-adv-x="1024" />

    
    <glyph glyph-name="shang-san" unicode="&#59070;" d="M559.76 186.91l2.92 4 142.48 175 117.48 143.87 11 13.19c4.42 7.93 7.34 16.51 7.34 25.74 0 30.4-27.15 54.82-61 54.82H244c-33.8 0-61-24.42-61-54.82a52 52 0 0 1 9.55-29.7c0.72-1.33 2.2-2 2.94-3.3l121.9-150.52 142.48-175 3.67-4c11-13.22 28.63-21.8 48.47-21.8a66.9 66.9 0 0 1 47.74 22.44z"  horiz-adv-x="1024" />

    
    <glyph glyph-name="jia" unicode="&#59071;" d="M841 424H552V713h-80v-289H183v-80h289v-289h80V344h289v80z"  horiz-adv-x="1024" />

    
    <glyph glyph-name="jisuanjishanchu" unicode="&#59072;" d="M796.5 591H380.29a87.39 87.39 0 0 1-53.74-18.58l-152.79-120a87 87 0 0 1 0-136.84l152.79-120A87.39 87.39 0 0 1 380.29 177H796.5a87.1 87.1 0 0 1 87 87V504a87.1 87.1 0 0 1-87 87z m39-327a39 39 0 0 0-39-39H380.29a39.17 39.17 0 0 0-24.09 8.33l-152.79 120a39 39 0 0 0 0 61.34l152.79 120a39.18 39.18 0 0 0 24.09 8.33H796.5a39 39 0 0 0 39-39zM646 482a24 24 0 0 1-34 0l-64-64-64 64a24 24 0 0 1-34-34l64-64-64-64a24 24 0 0 1 34-34l64 64 64-64a24 24 0 0 1 34 34l-64 64 64 64a24 24 0 0 1 0 34z"  horiz-adv-x="1024" />

    
    <glyph glyph-name="dianhua" unicode="&#59073;" d="M636.72 55.28c-98.81 0-209.85 54.36-304.64 149.15-33 32.94-61.39 68.2-84.46 104.79-23.25 36.83-40.5 74.23-51.28 111.17l-0.16 0.52c-23.66 81.33-15.4 156.37 23.88 217 15.25 23.48 29.22 40.6 42.72 52.37 17.07 14.88 34.94 22.42 53.12 22.42 12.43 0 31-3.77 49-21.72 22.94-22.82 42.36-46.11 56.1-67.31 22.13-34.16 29.17-62.59 21.51-86.9-4.56-14.53-14.86-26.51-45.62-57.51l-5.56-5.62c-11-11.16-18.47-19-21.77-23.71-4.57-6.42 5.25-24.67 14.29-38.85v-0.08c13.62-21.55 34-45.94 70.28-84.1 31.94-30.31 51.95-47.61 71.26-61.61C554.63 244.19 569 241 575 241a5 5 0 0 1 3 0.6c6 4.39 15 13.05 29.48 27.39 31.21 30.79 43.21 41.08 57.58 45.57a65.92 65.92 0 0 0 19.69 2.9c21.53 0 45.86-9.57 74.38-29.25 19-13.11 39.24-30.33 60.12-51.17 20.42-20.4 22.9-41.61 21.39-55.81-1.76-17-9.76-33-24.43-49-11.62-12.64-28-25.73-50.07-40-37.96-24.5-81.5-36.95-129.42-36.95z"  horiz-adv-x="1024" />

    
    <glyph glyph-name="xia" unicode="&#59074;" d="M512 177.07L161.79 527.29l42.42 42.42L512 261.93l307.79 307.78 42.42-42.42L512 177.07z"  horiz-adv-x="1024" />

    
    <glyph glyph-name="shang" unicode="&#59075;" d="M819.79 198.29L512 506.07 204.21 198.29l-42.42 42.42L512 590.93l350.21-350.22-42.42-42.42z"  horiz-adv-x="1024" />

    
    <glyph glyph-name="guanbi" unicode="&#59076;" d="M869.28 684.72l-56.56 56.56L512 440.57 211.28 741.28l-56.56-56.56L455.43 384 154.72 83.28l56.56-56.56L512 327.43l300.72-300.71 56.56 56.56L568.57 384l300.71 300.72z"  horiz-adv-x="1024" />

    
    <glyph glyph-name="you" unicode="&#59077;" d="M495.65 33.79l-42.43 42.42L761.01 384 453.22 691.79l42.43 42.42L845.86 384 495.65 33.79z"  horiz-adv-x="1024" />

    
    <glyph glyph-name="zuo" unicode="&#59078;" d="M655.29 33.79L305.07 384l350.22 350.21 42.42-42.42L389.93 384l307.78-307.79-42.42-42.42z"  horiz-adv-x="1024" />

    
    <glyph glyph-name="sousuo" unicode="&#59079;" d="M862.21 77.6L711 228.82a314.53 314.53 0 1 1-42.18-42.68l151-151a30 30 0 1 1 42.43 42.43zM287.48 247.51A254.29 254.29 0 1 0 467.29 173a252.63 252.63 0 0 0-179.81 74.51z"  horiz-adv-x="1024" />

    
    <glyph glyph-name="xingbiao" unicode="&#59080;" d="M512 696.9l101.67-206L841 457.87 676.5 297.52l38.83-226.42L512 178 308.67 71.1l38.83 226.42L183 457.87l227.33 33.03L512 696.9z"  horiz-adv-x="1024" />

    
    <glyph glyph-name="dizhi" unicode="&#59081;" d="M512 713c-147.83 0-268.09-120.26-268.09-268.09C243.91 296.75 393.67 55 512 55s268.09 241.75 268.09 389.91C780.09 592.74 659.83 713 512 713z m0-385.22c-74.88 0-135.81 60.93-135.81 135.81S437.12 599.4 512 599.4s135.81-60.93 135.81-135.81S586.88 327.78 512 327.78z"  horiz-adv-x="1024" />

    
    <glyph glyph-name="shaixuan" unicode="&#59082;" d="M556.37 25a62.61 62.61 0 0 0-40.84 15.43l-88.77 76.17c-15.89 13.64-25 34.13-25 56.24l0.35 192.68-163.19 173.96c-33.49 35.7-42.21 85.78-22.76 130.7S278.09 743 327 743h370c48.95 0 91.44-27.9 110.89-72.82s10.73-95-22.76-130.7l-163.21-174v-268.79c0.24-28.7-15.28-54.54-39.57-65.86a61.27 61.27 0 0 0-25.98-5.83zM327 683c-25 0-45.89-13.71-55.83-36.66s-5.66-47.56 11.46-65.8L454 397.92a30 30 0 0 0 8.12-20.58l-0.37-204.53c0-5.26 2.2-9 4.08-10.65L554.6 86c1.42-1.22 1.75-1.07 2.36-0.78 1.73 0.81 5 4.15 4.92 11V377.39a30 30 0 0 0 8.12 20.53l171.33 182.61c17.12 18.24 21.4 42.84 11.46 65.8S722 683 697 683z"  horiz-adv-x="1024" />

    
    <glyph glyph-name="shezhi" unicode="&#59083;" d="M402.76 44.28a29.94 29.94 0 0 0-15 4l-103.32 59.93a30 30 0 0 0-14.33 32 249 249 0 0 1 4.62 42.41c0.55 24.87-3 43.51-10.73 57s-22.16 25.82-44 37.8a256 256 0 0 1-40.4 17.72 30 30 0 0 0-20.3 23.68c-1.05 6.45-6.31 39.85-6.31 64.12 0 15.84 2.3 39.18 6.3 64a30.52 30.52 0 0 0 23.59 24.84A253.65 253.65 0 0 1 220 488.35c21.82 12 36.2 24.35 44 37.87s11.39 32.24 10.84 57.05a240.61 240.61 0 0 1-4.71 42.39 30 30 0 0 0 14.34 32.22l103.33 59.68a30 30 0 0 0 34.9-3.56 251.92 251.92 0 0 1 34.5-25.25c21.29-12.93 39.19-19.21 54.72-19.21s33.62 6.29 54.88 19.22a245.49 245.49 0 0 1 34.4 25.28q0.45 0.41 0.92 0.79a29.9 29.9 0 0 0 21.29 8.86 30 30 0 0 0 24.65-12.89l91.47-53a30 30 0 0 0 14.33-32 249.28 249.28 0 0 1-4.61-42.41c-0.55-24.87 3-43.51 10.73-57s22.15-25.82 44-37.8a255.9 255.9 0 0 1 40.4-17.73 30 30 0 0 0 20.3-23.69c1.05-6.45 6.31-39.86 6.31-64.11 0-15.84-2.3-39.18-6.3-64a30 30 0 0 0-20.45-23.79A248.06 248.06 0 0 1 804 277.64c-21.81-12-36.19-24.34-44-37.86s-11.4-32.24-10.85-57.06a240.77 240.77 0 0 1 4.71-42.39 30 30 0 0 0-14.34-32.21L636.2 48.44a30 30 0 0 0-34.91 3.56 251.72 251.72 0 0 1-34.5 25.25c-21.29 12.93-39.19 19.22-54.73 19.22s-33.62-6.29-54.88-19.22a245.61 245.61 0 0 1-34.41-25.29 30 30 0 0 0-20.01-7.68z m-70.38 105.49l67.47-39.12A310.49 310.49 0 0 0 426 128.48c30.93 18.81 59.08 28 86.06 28s54.94-9.18 85.88-27.98a315 315 0 0 0 26.14-17.78l67.48 39a307.35 307.35 0 0 0-2.38 31.69c-0.8 36.13 5.37 65 18.86 88.37s35.36 43.09 67.1 60.5A321.17 321.17 0 0 0 808 345.79c1.92 14.81 3 28.27 3 37.28 0 9.82-1.32 24-3 37.36A319.33 319.33 0 0 0 775.15 436c-31.75 17.39-53.71 37.15-67.15 60.4s-19.54 52.13-18.74 88.29a313.38 313.38 0 0 0 2.33 31.53l-67.47 39.12A310.34 310.34 0 0 0 598 637.51c-30.93-18.81-59.08-28-86.06-28s-54.93 9.14-85.87 27.93a315 315 0 0 0-26.14 17.78l-67.49-39a307.31 307.31 0 0 0 2.38-31.69c0.8-36.12-5.36-65-18.85-88.35s-35.36-43.11-67.12-60.52A321.09 321.09 0 0 0 216 420.21c-1.92-14.81-3-28.27-3-37.28 0-9.83 1.32-24 3-37.36A319.32 319.32 0 0 0 248.84 330c31.75-17.41 53.71-37.17 67.12-60.42s19.54-52.13 18.74-88.29a313.1 313.1 0 0 0-2.32-31.52zM511.93 242C434.21 242 371 305.27 371 383.07s63.29 141.08 141.08 141.08S653 460.86 653 383.07 589.72 242 511.93 242z m0.13 222.17a81.09 81.09 0 1 1 80.94-81.1 81.18 81.18 0 0 1-80.94 81.08z"  horiz-adv-x="1024" />

    
    <glyph glyph-name="weixin" unicode="&#59084;" d="M640.63 487.85c3.33 0 6.66-0.08 9.91-0.24C633.18 582 535.73 654.29 418.15 654.29 288.3 654.29 183 566.19 183 457.57c0-63.68 36.21-120.39 92.3-156.27 0.72-0.48 2.14-1.37 2.14-1.37l-22.74-71.2 85 43.33s2.7-0.8 4-1.12a278.36 278.36 0 0 1 74.4-10c5.31 0 10.54 0.24 15.77 0.48a152.12 152.12 0 0 0-7.45 46.94c0 99.08 95.95 179.5 214.23 179.5z m-140.71 69.44c18.22 0 33-14.34 33-32s-14.74-32-33-32-33 14.34-33 32 14.74 32 33 32z m-163.69-64c-18.22 0-33 14.34-33 32s14.74 32 33 32 33-14.34 33-32-14.73-32-33-32zM841 307.06c0 91.79-88.89 166.21-198.63 166.21s-198.71-74.41-198.71-166.21 89-166.2 198.71-166.2a233 233 0 0 1 62.83 8.49l3.4 1 71.78-36.61-19.17 60.15s1.19 0.8 1.82 1.12c47.38 30.44 78 78.26 78 132.08z m-267.79 30.2c-15.37 0-27.89 12.09-27.89 27.07s12.52 27 27.89 27 27.89-12.09 27.89-27-12.44-27.07-27.89-27.07z m138.26 0c-15.38 0-27.89 12.09-27.89 27.07s12.44 27 27.89 27 27.89-12.09 27.89-27-12.44-27.07-27.89-27.07z m0 0"  horiz-adv-x="1024" />

    
    <glyph glyph-name="shanchu" unicode="&#59085;" d="M832.47 653.92H706.7A93.88 93.88 0 0 1 613.05 743h-202.1a93.88 93.88 0 0 1-93.65-89.08H191.53a30 30 0 0 1 0-60h52.06v-475.16A93.87 93.87 0 0 1 337.36 25h349.28a93.87 93.87 0 0 1 93.76 93.76V593.92h52.06a30 30 0 1 1 0 60zM410.95 683h202.1a33.81 33.81 0 0 0 33.43-29.08h-269A33.81 33.81 0 0 0 410.95 683z m309.46-564.24A33.8 33.8 0 0 0 686.64 85H337.36a33.8 33.8 0 0 0-33.76 33.76V593.92h416.81zM399.48 519.49a30 30 0 0 1-30-30v-300.06a30 30 0 0 1 60 0V489.49a30 30 0 0 1-30 30zM512 519.49a30 30 0 0 1-30-30v-300.06a30 30 0 0 1 60 0V489.49a30 30 0 0 1-30 30zM624.52 519.49a30 30 0 0 1-30-30v-300.06a30 30 0 0 1 60 0V489.49a30 30 0 0 1-30 30z"  horiz-adv-x="1024" />

    
    <glyph glyph-name="huaban1" unicode="&#59086;" d="M402.83 129.75a30 30 0 0 0-21.49 9.07L163 363.08a30 30 0 0 0 43 41.85l196.83-202.17L818 629.17a30 30 0 1 0 43-41.86L424.33 138.83a30 30 0 0 0-21.5-9.08z"  horiz-adv-x="1024" />

    
    <glyph glyph-name="zhuanzhang" unicode="&#59087;" d="M195.64 383.33q0.88-0.06 1.76-0.06a24 24 0 0 1 23.91 22.27 305.54 305.54 0 0 0 590.3 86.59 24 24 0 0 1 46.39 8.55V654a24 24 0 0 1-48 0v-60a353.36 353.36 0 0 1-258.49 142.06A353.22 353.22 0 0 1 173.44 409a24 24 0 0 1 22.2-25.67zM842.37 384.67a24 24 0 0 1-25.67-22.21 305.54 305.54 0 0 0-590.3-86.59 24 24 0 0 1-46.4-8.55v-157.18a24 24 0 0 1 48 0V174a353.36 353.36 0 0 1 258.5-142.06q13.06-0.94 26-0.94a353.22 353.22 0 0 1 352.08 328 24 24 0 0 1-22.21 25.67zM624.66 397.06a24 24 0 0 1 0 48H413.35a24 24 0 1 1 0-48H495v-42.13h-81.65a24 24 0 1 1 0-48H495v-73.15a24 24 0 1 1 48 0v73.14h81.66a24 24 0 0 1 0 48H543v42.14zM479.41 492.16v42.06a24 24 0 0 1-48 0v-42.06a24 24 0 0 1 48 0zM606.6 492.16v42.06a24 24 0 0 1-48 0v-42.06a24 24 0 1 1 48 0z"  horiz-adv-x="1024" />

    
    <glyph glyph-name="jiechu" unicode="&#59088;" d="M512 348c-79.5 0-154.6 13.2-211.48 37.17C237.05 411.94 202.1 450 202.1 492.5c0 32.63 20.79 57.1 38.24 71.88 21.45 18.18 51 33.56 87.74 45.72a24 24 0 0 0 15.07-45.57c-30.46-10.08-55.28-22.79-71.78-36.77-9.7-8.22-21.27-21-21.27-35.26 0-21.27 25.82-44.85 69.06-63.07C370.27 407.89 438.76 396 512 396s141.73 11.86 192.84 33.4c43.24 18.22 69.06 41.8 69.06 63.07 0 14.25-11.56 27-21.27 35.26-16.5 14-41.32 26.69-71.78 36.77a24 24 0 0 0 15.07 45.57c36.77-12.16 66.28-27.54 87.73-45.72 17.44-14.78 38.23-39.25 38.23-71.88 0-42.45-35-80.56-98.42-107.3C666.6 361.23 591.5 348 512 348zM512 189.51c-79.5 0-154.6 13.2-211.48 37.17-63.47 26.75-98.42 64.86-98.42 107.32a24 24 0 0 0 48 0c0-21.27 25.82-44.85 69.06-63.07 51.12-21.54 119.6-33.4 192.84-33.4s141.73 11.86 192.84 33.4c43.24 18.22 69.06 41.8 69.06 63.07a24 24 0 0 0 48 0c0-42.45-35-80.56-98.42-107.3C666.6 202.71 591.5 189.51 512 189.51zM512 31c-79.5 0-154.6 13.2-211.48 37.17-63.47 26.74-98.42 64.83-98.42 107.3a24 24 0 0 0 48 0c0-21.27 25.82-44.85 69.06-63.07C370.27 90.86 438.76 79 512 79s141.73 11.86 192.84 33.4c43.24 18.22 69.06 41.8 69.06 63.07a24 24 0 0 0 48 0c0-42.45-35-80.56-98.42-107.3C666.6 44.2 591.5 31 512 31zM512 483.43a24 24 0 0 0-24 24V702.92a24 24 0 0 0 48 0v-195.49a24 24 0 0 0-24-24zM579.13 621.87a23.92 23.92 0 0 0-17 7L512 679.06l-50.16-50.16a24 24 0 1 0-33.94 33.94L495 730a24 24 0 0 0 34 0l67.13-67.13a24 24 0 0 0-17-41z"  horiz-adv-x="1024" />

    
    <glyph glyph-name="xinzengleibie" unicode="&#59089;" d="M830.08 266L601.81 538.37a196.13 196.13 0 0 1-57.5 141c-76.7 76.7-201.51 76.7-278.21 0s-76.7-201.51 0-278.21a196.12 196.12 0 0 1 139.1-57.52h1.9L679.52 115.4a24 24 0 0 1 32.38 1.42L750 154.9a51.4 51.4 0 0 0 3.64-16.9 49.87 49.87 0 0 0-12.79-35.29c-17-19.2-48.3-27.27-85.8-22.12-66.24 9.08-136.25 55-183.32 91.95-55.67 43.68-121.39 53.68-190 28.92-50.11-18.07-84.07-48.57-85.5-49.86a24 24 0 0 1 32.21-35.6c0.28 0.25 28.25 25.37 69.53 40.26 53 19.13 101.54 11.89 144.13-21.53 75.25-59 144.7-93.27 206.43-101.74a209.07 209.07 0 0 1 28.4-2 158.71 158.71 0 0 1 46.91 6.7c21.2 6.54 39.51 18 52.93 33.15A97.64 97.64 0 0 1 801.6 140a101.42 101.42 0 0 1-16.17 50.32l43.23 43.23a24 24 0 0 1 1.42 32.45zM300 645.44a148.9 148.9 0 0 0 210.33 0c58-58 58-152.34 0-210.33s-152.34-58-210.33 0-58 152.34 0 210.33zM693.5 166.3l-224.32 188a196.46 196.46 0 0 1 122 122L779.17 252zM611.87 367.55a24 24 0 0 1-33.94-33.94l48-48a24 24 0 0 1 33.94 33.94z"  horiz-adv-x="1024" />

    
    <glyph glyph-name="jierujiechu" unicode="&#59090;" d="M542.05 484.1a24 24 0 0 0-24 24V713a24 24 0 1 0 48 0v-147l17.79 17.79a24 24 0 1 0 33.94-33.94L559 491.13a24 24 0 0 0-16.95-7.03zM481.94 484.1a24 24 0 0 0-24 24v147l-17.79-17.79a24 24 0 1 0-33.94 33.94L465 730a24 24 0 0 0 41-17v-204.9a24 24 0 0 0-24.06-24zM512 348.5c-79.61 0-154.82 13.22-211.78 37.22-63.55 26.78-98.54 64.93-98.54 107.43 0 32.46 20.57 56.84 37.83 71.57 21.22 18.12 50.45 33.49 86.87 45.69a24 24 0 0 0 15.24-45.52c-30.13-10.09-54.66-22.77-70.95-36.68-9.58-8.18-21-20.9-21-35.07 0-21.32 25.86-44.94 69.18-63.2 51.21-21.56 119.8-33.44 193.15-33.44s141.94 11.88 193.14 33.45c43.32 18.25 69.18 41.88 69.18 63.2 0 14.17-11.42 26.89-21 35.07-16.29 13.91-40.82 26.59-70.94 36.68a24 24 0 1 0 15.24 45.52c36.42-12.2 65.65-27.57 86.87-45.69 17.25-14.73 37.82-39.11 37.82-71.57 0-42.5-35-80.65-98.54-107.43C666.82 361.71 591.61 348.5 512 348.5zM512 189.75c-79.61 0-154.82 13.22-211.78 37.22-63.55 26.78-98.54 64.93-98.54 107.43a24 24 0 0 0 48 0c0-21.32 25.86-44.94 69.18-63.2 51.2-21.57 119.79-33.45 193.14-33.45s141.94 11.88 193.14 33.45c43.32 18.25 69.18 41.88 69.18 63.2a24 24 0 0 0 48 0c0-42.5-35-80.65-98.54-107.43C666.82 203 591.61 189.75 512 189.75zM512 31c-79.61 0-154.82 13.22-211.78 37.22-63.55 26.78-98.54 64.93-98.54 107.43a24 24 0 0 0 48 0c0-21.32 25.86-44.94 69.18-63.2C370.06 90.88 438.65 79 512 79s141.94 11.88 193.14 33.45c43.32 18.25 69.18 41.88 69.18 63.2a24 24 0 0 0 48 0c0-42.5-35-80.65-98.54-107.43C666.82 44.22 591.61 31 512 31z"  horiz-adv-x="1024" />

    
    <glyph glyph-name="jieru" unicode="&#59091;" d="M512 348c-79.5 0-154.6 13.2-211.48 37.17C237.05 411.94 202.1 450 202.1 492.5c0 32.63 20.79 57.1 38.24 71.88 21.45 18.18 51 33.56 87.74 45.72a24 24 0 0 0 15.07-45.57c-30.46-10.08-55.28-22.79-71.78-36.77-9.7-8.22-21.27-21-21.27-35.26 0-21.27 25.82-44.85 69.06-63.07C370.27 407.89 438.76 396 512 396s141.73 11.86 192.84 33.4c43.24 18.22 69.06 41.8 69.06 63.07 0 25.52-37.51 54.11-95.56 72.85A24 24 0 1 0 693.09 611c37.54-12.12 67.71-27.56 89.67-45.89 17.85-14.9 39.13-39.6 39.13-72.64 0-42.45-35-80.56-98.42-107.3C666.6 361.23 591.5 348 512 348zM512 189.51c-79.5 0-154.6 13.2-211.48 37.17-63.47 26.75-98.42 64.86-98.42 107.32a24 24 0 0 0 48 0c0-21.27 25.82-44.85 69.06-63.07 51.12-21.54 119.6-33.4 192.84-33.4s141.73 11.86 192.84 33.4c43.24 18.22 69.06 41.8 69.06 63.07a24 24 0 0 0 48 0c0-42.45-35-80.56-98.42-107.3C666.6 202.71 591.5 189.51 512 189.51zM512 31c-79.5 0-154.6 13.2-211.48 37.17-63.47 26.74-98.42 64.83-98.42 107.3a24 24 0 0 0 48 0c0-21.27 25.82-44.85 69.06-63.07C370.27 90.86 438.76 79 512 79s141.73 11.86 192.84 33.4c43.24 18.22 69.06 41.8 69.06 63.07a24 24 0 0 0 48 0c0-42.45-35-80.56-98.42-107.3C666.6 44.2 591.5 31 512 31zM512 493.51a24 24 0 0 0-24 24V713a24 24 0 0 0 48 0v-195.49a24 24 0 0 0-24-24zM512 483.43a24 24 0 0 0-17 7l-67.1 67.17a24 24 0 1 0 33.94 33.94L512 541.38l50.16 50.16a24 24 0 0 0 33.94-33.94L529 490.46a24 24 0 0 0-17-7.03z"  horiz-adv-x="1024" />

    
    <glyph glyph-name="zijinliushui" unicode="&#59092;" d="M831 95.3V625.27A101.85 101.85 0 0 1 729.28 727H294.72A101.85 101.85 0 0 1 193 625.27V95.3a24 24 0 0 1 11.77-22l98.33-58a24 24 0 0 1 24.39 0l86.14 50.81 86.14-50.81a24 24 0 0 1 24.39 0l86.14 50.81 86.15-50.81a24 24 0 0 1 24.38 0l98.34 58a24 24 0 0 1 11.83 22z m-122.3-31.44l-86.15 50.81a24 24 0 0 1-24.39 0L512 63.86l-86.14 50.81a24 24 0 0 1-24.39 0l-86.14-50.81L241 107.71V625.27A53.79 53.79 0 0 0 294.72 679h434.56A53.79 53.79 0 0 0 783 625.27v-517.56zM621.06 397.83a24 24 0 0 1 0 48H402.94a24 24 0 0 1 0-48H488v-45h-85.06a24 24 0 0 1 0-48H488v-76.27a24 24 0 0 1 48 0V304.8h85.06a24 24 0 0 1 0 48H536v45zM446.36 471.22a24 24 0 0 1 24 24v43.42a24 24 0 0 1-48 0v-43.42a24 24 0 0 1 24-24zM577.64 471.22a24 24 0 0 1 24 24v43.42a24 24 0 0 1-48 0v-43.42a24 24 0 0 1 24-24z"  horiz-adv-x="1024" />

    
    <glyph glyph-name="xinzengleibie1" unicode="&#59093;" d="M620.88 31a78.68 78.68 0 0 0-71.09 44.62L441.34 298.89a31.36 31.36 0 0 1-14.44 14.44L203.62 421.78a79.22 79.22 0 0 0 11.79 147.12l547.48 164.67a79.22 79.22 0 0 0 98.68-98.68L696.9 87.41a78.74 78.74 0 0 0-69.53-56.15q-3.26-0.26-6.49-0.26z m165 658a31.86 31.86 0 0 1-9.19-1.37L229.23 522.94c-19-5.7-21.73-22.41-22.13-27.4s-0.32-21.93 17.48-30.58l223.29-108.45a79.55 79.55 0 0 0 36.65-36.65L593 96.59c8.65-17.8 25.59-17.88 30.58-17.48s21.7 3.18 27.4 22.13L815.6 648.71A31.29 31.29 0 0 1 785.9 689z"  horiz-adv-x="1024" />

    
    <glyph glyph-name="xinzengleibie2" unicode="&#59094;" d="M636.72 31.28c-105.12 0-222.35 56.93-321.61 156.18-34.23 34.2-63.77 70.86-87.79 109-24.4 38.65-42.56 78-54 117.08l-0.2 0.66c-25.65 88.24-16.38 170.11 26.8 236.8 16.49 25.39 31.89 44.16 47.09 57.41 21.56 18.8 44.74 28.33 68.89 28.33 17 0 42.18-5 66-28.75 24.11-24 44.62-48.63 59.27-71.23 26.27-40.55 34.21-75.6 24.27-107.17-6.39-20.38-19.89-35.38-51.47-67.21l-5.53-5.59c-3.3-3.36-9.65-9.82-14.29-14.89a139.51 139.51 0 0 1 10-17.9l0.06-0.09v-0.05c12.69-20.07 32.1-43.25 67-79.94 30.79-29.29 50.01-45.92 68.33-59.18 15.63-11.31 25.48-16.15 30.81-18.21 5.6 5.09 12.95 12.33 20.21 19.54 32.06 31.63 47.11 45.12 67.33 51.44a89.82 89.82 0 0 0 26.85 4c26.56 0 55.35-11 88-33.5 20.2-13.93 41.54-32.08 63.44-53.94 21.17-21.15 31.22-47.9 28.3-75.33-2.31-22.25-12.33-42.77-30.62-62.67-13-14.16-30.91-28.53-54.71-43.92-41.88-27.15-89.8-40.87-142.43-40.87zM315.91 688.72c-12.21 0-24.78-5.56-37.35-16.51-11.8-10.29-24.35-25.78-38.37-47.35-35.36-54.59-42.62-122.8-21-197.24v-0.1l0.12-0.4c10.22-34.8 26.55-70.12 48.61-105.12C290 286.94 317.33 253.09 349 221.41c90.34-90.33 195.19-142.13 287.68-142.13 43.22 0 82.36 11.16 116.36 33.16 20.35 13.16 35.21 25 45.44 36.1 11 12 17 23.54 18.23 35.21 1.4 13.14-3.48 25.35-14.48 36.34-19.85 19.81-39 36.1-56.78 48.4-24 16.59-44.48 25-60.75 25a41.92 41.92 0 0 1-12.53-1.81c-8.84-2.76-18.69-10.94-47.89-39.75-15.61-15.5-24.89-24.36-32.17-29.68q-0.61-0.44-1.25-0.85A28.67 28.67 0 0 0 575 217c-16 0-36.8 9.43-63.61 28.83-20.28 14.7-40.94 32.54-73.71 63.64q-0.45 0.42-0.87 0.87c-37.42 39.36-58.61 64.79-73.14 87.76l-0.08 0.12c-14.77 23.18-26.64 47.2-13.56 65.59 4.25 6 11.79 14 24.21 26.63l5.61 5.67c28.8 29 37 38.85 39.78 47.82 5.38 17.09-0.76 38.89-18.75 66.67C388 630.42 369.75 652.33 348 674c-9.82 9.78-20.6 14.72-32.09 14.72z m73.26-252.63z"  horiz-adv-x="1024" />

    
    <glyph glyph-name="xinzengleibie3" unicode="&#59095;" d="M512 406.59c-90.29 0-163.74 73.45-163.74 163.74S421.71 734.07 512 734.07s163.74-73.45 163.74-163.74S602.29 406.59 512 406.59z m0 279.48a115.74 115.74 0 1 1 115.74-115.74A115.87 115.87 0 0 1 512 686.07zM656.73 28.07H367.27c-90.29 0-163.74 73.45-163.74 163.74S277 355.55 367.27 355.55h289.46c90.29 0 163.74-73.45 163.74-163.74S747 28.07 656.73 28.07zM367.27 307.55a115.74 115.74 0 0 1 0-231.48h289.46a115.74 115.74 0 0 1 0 231.48z"  horiz-adv-x="1024" />

    
    <glyph glyph-name="xinzengleibie4" unicode="&#59096;" d="M851.6 638.23l-88.07 43.36a24 24 0 1 1-21.2-43.06L817 601.76v-254.6a152.21 152.21 0 0 1-243.31-48.57 120.79 120.79 0 0 1-123.37 0A152.21 152.21 0 0 1 207 347.16v254.6l74.67 36.76a24 24 0 0 1-21.2 43.06l-88.07-43.35A24 24 0 0 1 159 616.7v-380.42c0-84 68.33-152.33 152.33-152.33s152.33 68.33 152.33 152.33q0 6.23-0.5 12.33a72.44 72.44 0 0 0 97.69 0q-0.49-6.1-0.5-12.33c0-84 68.33-152.33 152.33-152.33S865 152.28 865 236.28V616.7a24 24 0 0 1-13.4 21.53zM311.33 131.95a104.33 104.33 0 1 0 104.33 104.33 104.45 104.45 0 0 0-104.33-104.33z m401.34 0A104.33 104.33 0 1 0 817 236.28a104.45 104.45 0 0 0-104.33-104.33z"  horiz-adv-x="1024" />

    
    <glyph glyph-name="xinzengleibie5" unicode="&#59097;" d="M765.22 703.89H258.78A99.9 99.9 0 0 1 159 604.11v-440.22a99.9 99.9 0 0 1 99.78-99.78h506.44A99.9 99.9 0 0 1 865 163.89V604.11a99.9 99.9 0 0 1-99.78 99.78z m0-591.79H258.78A51.84 51.84 0 0 0 207 163.89V604.11a51.84 51.84 0 0 0 51.78 51.78h506.44A51.84 51.84 0 0 0 817 604.11V507H611a123 123 0 1 1 0-246h206v-97.09a51.84 51.84 0 0 0-51.78-51.8zM817 309H611a75 75 0 1 0 0 150h206zM623.53 384m-43.31 0a43.31 43.31 0 1 1 86.62 0 43.31 43.31 0 1 1-86.62 0Z"  horiz-adv-x="1024" />

    
    <glyph glyph-name="xinzengleibie6" unicode="&#59098;" d="M821.11 156.64l-104.62 181.2a252 252 0 1 1-409 0l-104.6-181.19a24 24 0 0 1 23.48-35.85l93.12 10.51 37.46-85.9A24 24 0 0 1 377.6 31h1.35a24 24 0 0 1 20.78 12l109.76 190.11h5.02L624.27 43A24 24 0 0 1 645 31h1.35A24 24 0 0 1 667 45.37l37.45 85.9 93.13-10.52a24 24 0 0 1 23.48 35.85zM512 689c112.46 0 204-91.5 204-204a204.22 204.22 0 0 0-46.62-129.79l-0.23-0.28a203.53 203.53 0 0 0-142.59-73.37h-0.43c-4.72-0.33-9.46-0.49-14.09-0.49s-9.36 0.17-14.1 0.49h-0.41A203.51 203.51 0 0 0 355 354.89l-0.36 0.43A204.22 204.22 0 0 0 308 485c0 112.5 91.54 204 204 204zM381.94 108.18l-25.53 58.56A24 24 0 0 1 331.72 181l-63.48-7.17 72.81 126.12A251.54 251.54 0 0 1 457.48 239zM692.28 181a24 24 0 0 1-24.69-14.26l-25.53-58.55L566.52 239a251.54 251.54 0 0 1 116.42 60.93l72.81-126.12z"  horiz-adv-x="1024" />

    
    <glyph glyph-name="xinzengleibie7" unicode="&#59099;" d="M850.17 537.37l-84.27 132A94 94 0 0 1 686.32 713H337.68a94 94 0 0 1-79.58-43.61l-84.27-132a94.69 94.69 0 0 1 4.67-108.26L437.08 92a94.41 94.41 0 0 1 149.83 0L845.5 429.11a94.69 94.69 0 0 1 4.67 108.26z m-40.46-25.83a46 46 0 0 0 2.61-4.68h-126L730.88 635zM686.32 665c1.38 0 2.74-0.08 4.1-0.2l-54.95-157.93H388.53l-54.95 157.91c1.36 0.12 2.72 0.2 4.1 0.2zM512 152L405.23 458.87h213.54zM293.12 635l44.59-128.15h-126a46 46 0 0 0 2.61 4.68z m-76.53-176.7l-0.4 0.55h138.22L469.21 129zM554.79 129l114.8 329.92h138.23l-0.4-0.55z"  horiz-adv-x="1024" />

    
    <glyph glyph-name="xinzengleibie8" unicode="&#59100;" d="M841.93 533.62L561.79 659.3a121.74 121.74 0 0 1-99.57 0L182.07 533.62a39.06 39.06 0 0 1 0-71.27l82.73-37.12a24.22 24.22 0 0 1-0.14-2.61v-247A77.62 77.62 0 0 1 342.18 98H673.6a77.62 77.62 0 0 1 77.52 77.54v246l35.12 15.76V229a24 24 0 0 1 48 0V458.9l7.69 3.45a39.06 39.06 0 0 1 0 71.27zM481.86 615.5a73.7 73.7 0 0 0 60.28 0L804.1 498l-262-117.52a73.7 73.7 0 0 0-60.28 0L219.9 498z m221.26-439.91A29.56 29.56 0 0 0 673.6 146H342.18a29.56 29.56 0 0 0-29.52 29.54V403.76l149.55-67.09a121.74 121.74 0 0 1 99.57 0l141.33 63.41z"  horiz-adv-x="1024" />

    
    <glyph glyph-name="xinzengleibie9" unicode="&#59101;" d="M754.46 488.48H183a24 24 0 0 1-24-24v-114.42a288.19 288.19 0 0 1 564.2-82.66h31.26a110.54 110.54 0 1 1 0 221.09z m-137.6-308.19A240.09 240.09 0 0 0 207 350.06v90.42h480.19v-90.42a238.52 238.52 0 0 0-70.33-169.77z m137.6 135.1h-19.27V440.48h19.27a62.54 62.54 0 1 0 0-125.09zM248.33 549.66a24 24 0 1 1 48 0c0 1.77 0 1.77 3.78 5.94 6.07 6.69 16.22 17.89 16.22 38.18s-10.15 31.5-16.22 38.22c-3.78 4.17-3.78 4.17-3.78 5.94s0 1.77 3.78 5.94c6.07 6.69 16.22 17.89 16.22 38.18a24 24 0 1 1-48 0c0-1.77 0-1.77-3.78-5.94-6.07-6.69-16.22-17.89-16.22-38.18s10.15-31.49 16.22-38.18c3.78-4.17 3.78-4.17 3.78-5.94s0-1.77-3.78-5.95c-6.06-6.72-16.22-17.87-16.22-38.21zM413.09 549.66a24 24 0 0 1 48 0c0 1.77 0 1.77 3.78 5.94 6.07 6.69 16.22 17.89 16.22 38.18s-10.15 31.5-16.22 38.22c-3.78 4.17-3.78 4.17-3.78 5.94s0 1.77 3.78 5.94c6.07 6.69 16.22 17.89 16.22 38.18a24 24 0 0 1-48 0c0-1.77 0-1.77-3.78-5.94-6.07-6.69-16.22-17.89-16.22-38.18s10.15-31.49 16.22-38.18c3.78-4.17 3.78-4.17 3.78-5.94s0-1.77-3.78-5.95c-6.06-6.72-16.22-17.87-16.22-38.21zM577.85 549.66a24 24 0 0 1 48 0c0 1.77 0 1.77 3.78 5.94 6.07 6.69 16.22 17.89 16.22 38.18s-10.15 31.5-16.22 38.22c-3.78 4.17-3.78 4.17-3.78 5.94s0 1.77 3.78 5.94c6.07 6.69 16.22 17.89 16.22 38.18a24 24 0 1 1-48 0c0-1.77 0-1.77-3.78-5.94-6.07-6.69-16.22-17.89-16.22-38.18s10.15-31.49 16.22-38.18c3.78-4.17 3.78-4.17 3.78-5.94s0-1.77-3.78-5.95c-6.07-6.72-16.22-17.87-16.22-38.21z"  horiz-adv-x="1024" />

    
    <glyph glyph-name="xinzengleibie10" unicode="&#59102;" d="M805.43 715.36h-103a59.64 59.64 0 0 1-59.57-59.57v-261.6c0-72.15-58.7-130.85-130.85-130.85S381.15 322 381.15 394.19v261.6a59.64 59.64 0 0 1-59.57 59.57h-103A59.64 59.64 0 0 1 159 655.79v-250.15a353 353 0 1 1 706 0V655.79a59.64 59.64 0 0 1-59.57 59.57z m-103-48h103A11.58 11.58 0 0 0 817 655.79v-75.35H690.85v75.35a11.58 11.58 0 0 0 11.57 11.57z m-483.85 0h103a11.58 11.58 0 0 0 11.57-11.57v-75.35H207v75.35a11.58 11.58 0 0 0 11.57 11.57zM727.67 190A305 305 0 0 0 207 405.64v126.8h126.15v-138.25c0-98.62 80.23-178.85 178.85-178.85s178.85 80.23 178.85 178.85V532.44H817v-126.8A303 303 0 0 0 727.67 190z"  horiz-adv-x="1024" />

    
    <glyph glyph-name="xinzengleibie11" unicode="&#59103;" d="M735.66 553.55V713a24 24 0 0 1-24 24H312.34a24 24 0 0 1-24-24v-159.45C217 537.79 163.48 474.07 163.48 398.06a159.31 159.31 0 0 1 124.86-155.51V55a24 24 0 0 1 24-24h399.32a24 24 0 0 1 24 24V242.55a159.31 159.31 0 0 1 124.86 155.51c0 76.01-53.52 139.73-124.86 155.49z m-48 135.45v-131.7H336.34V689z m0-610H336.34V329.48h351.32V79z m95.06 243.28a111 111 0 0 0-47.06-30v61.2a24 24 0 0 1-24 24H312.34a24 24 0 0 1-24-24v-61.24a111.25 111.25 0 0 0 19 216 24.1 24.1 0 0 1 5-0.52h399.32a24.1 24.1 0 0 1 5 0.52 111.23 111.23 0 0 0 66.06-185.95zM616.94 273.63H404.47a24 24 0 0 1 0-48h212.47a24 24 0 1 1 0 48zM512 184H404.47a24 24 0 0 1 0-48H512a24 24 0 0 1 0 48z"  horiz-adv-x="1024" />

    
    <glyph glyph-name="xinzengleibie12" unicode="&#59104;" d="M777.32 440.14a95.15 95.15 0 0 1-55.5 86.4C719.52 581.45 698.13 632.78 661 672c-39.72 41.92-92.62 65-149 65s-109.25-23.09-149-65c-37.16-39.22-58.55-90.55-60.85-145.46A95 95 0 0 1 303.73 353l32-264.73A65.18 65.18 0 0 1 400.38 31h223.24a65.18 65.18 0 0 1 64.66 57.31l32 264.73a95.15 95.15 0 0 1 57.04 87.1zM512 689c83.47 0 152.39-67.48 161.1-153.84H350.9C359.61 621.52 428.53 689 512 689z m128.62-594.93a17.14 17.14 0 0 0-17-15.07H400.38a17.14 17.14 0 0 0-17 15.07L353 345.12h318z m41.68 299H341.7a47 47 0 1 0 0 94h340.6a47 47 0 1 0 0-94zM434.3 166.47a38.56 38.56 0 0 1 38.26-33.91h78.88a38.56 38.56 0 0 1 38.25 33.91l9.64 79.73a40.5 40.5 0 0 1-40.21 45.36h-94.25a40.5 40.5 0 0 1-40.21-45.36z m116.36 77.09l-7.61-63H481l-7.61 63z"  horiz-adv-x="1024" />

    
    <glyph glyph-name="xinzengleibie13" unicode="&#59105;" d="M759 714.17H265a106.09 106.09 0 0 1-106-106V282a106.09 106.09 0 0 1 106-106h223v-74.2H362a24 24 0 1 1 0-48h300a24 24 0 0 1 0 48H536V176h223a106.09 106.09 0 0 1 106 106V608.2a106.09 106.09 0 0 1-106 105.97z m-494-48h494a58 58 0 0 0 58-58V363.6H207V608.2a58 58 0 0 0 58 57.97zM759 224H265a58 58 0 0 0-58 58v33.6h610V282a58 58 0 0 0-58-58z"  horiz-adv-x="1024" />

    
    <glyph glyph-name="shuhuoquan" unicode="&#59106;" d="M748.27 518.77a283.11 283.11 0 0 1-145.87 82.85l49.29 64.12a44.28 44.28 0 0 1-35.1 71.26H407.41a44.28 44.28 0 0 1-35.1-71.26l49.29-64.12a284.24 284.24 0 0 1-223.06-277.53V112a81 81 0 0 1 81-81h465a81 81 0 0 1 81 81V324.09a283 283 0 0 1-77.27 194.68zM777.46 112a33 33 0 0 0-33-33h-465a33 33 0 0 0-33 33V324.09a236.15 236.15 0 0 0 220.67 235.62c0.44 0 0.88 0.07 1.31 0.12l1.14 0.16h0.2l1 0.18 0.33 0.08 0.8 0.2 0.44 0.13 0.68 0.2 0.52 0.18 0.57 0.2 0.61 0.24 0.47 0.19 0.69 0.31 0.37 0.17 0.77 0.4 0.27 0.14 0.87 0.51 0.15 0.09q0.5 0.31 1 0.65a24.12 24.12 0 0 1 2 1.5l0.07 0.07c0.26 0.23 0.53 0.46 0.78 0.7s0.54 0.52 0.8 0.79a23.85 23.85 0 0 1 2.86 3.58q0.28 0.43 0.54 0.87l0.09 0.14c0.15 0.25 0.29 0.51 0.43 0.77l0.16 0.29 0.31 0.63 0.22 0.47 0.21 0.47c0.09 0.22 0.18 0.43 0.27 0.65l0.12 0.31c0.1 0.27 0.2 0.55 0.3 0.83l0.05 0.16q0.16 0.49 0.3 1a23.78 23.78 0 0 1 0.81 4.5c0 0.37 0.05 0.73 0.06 1.1s0 0.75 0 1.13a23.94 23.94 0 0 1-0.16 2.46q-0.07 0.59-0.17 1.18v0.16c-0.06 0.33-0.12 0.67-0.19 1l-0.06 0.27c-0.07 0.29-0.14 0.58-0.22 0.88l-0.1 0.34c-0.07 0.26-0.15 0.52-0.23 0.78l-0.14 0.4c-0.08 0.23-0.16 0.47-0.25 0.7l-0.18 0.44c-0.09 0.21-0.17 0.43-0.26 0.64l-0.22 0.48-0.28 0.59-0.26 0.5-0.29 0.54-0.3 0.52-0.3 0.51-0.33 0.5-0.33 0.5-0.29 0.39-0.39 0.54L415 689h194l-69.69-90.65-0.11-0.16c-0.2-0.27-0.4-0.54-0.59-0.81l-0.15-0.22c-0.17-0.26-0.34-0.51-0.51-0.78l-0.19-0.31c-0.14-0.23-0.28-0.47-0.41-0.71l-0.21-0.4c-0.11-0.21-0.23-0.43-0.33-0.64l-0.23-0.48-0.27-0.58c-0.08-0.19-0.15-0.37-0.23-0.56l-0.21-0.52c-0.08-0.21-0.15-0.43-0.23-0.64l-0.16-0.46c-0.08-0.24-0.15-0.49-0.22-0.74l-0.11-0.38c-0.08-0.28-0.14-0.57-0.21-0.85l-0.07-0.29c-0.07-0.33-0.13-0.66-0.19-1v-0.17q-0.1-0.59-0.17-1.18a23.94 23.94 0 0 1-0.16-2.46v-1.13c0-0.37 0-0.74 0.06-1.1a23.78 23.78 0 0 1 0.81-4.5q0.14-0.5 0.3-1l0.05-0.16c0.09-0.28 0.19-0.55 0.3-0.83l0.12-0.31c0.09-0.22 0.18-0.44 0.27-0.65l0.21-0.47 0.22-0.47 0.31-0.63 0.16-0.29c0.14-0.26 0.28-0.52 0.43-0.77l0.09-0.14c0.17-0.3 0.35-0.59 0.54-0.88a23.85 23.85 0 0 1 2.86-3.58c0.26-0.27 0.53-0.53 0.8-0.79s0.52-0.47 0.78-0.7l0.07-0.07a24 24 0 0 1 2.59-1.92h0.06c0.52-0.33 1.06-0.65 1.6-0.94l0.22-0.11c0.53-0.27 1.06-0.53 1.61-0.77l0.23-0.09q0.76-0.32 1.54-0.58l0.2-0.07c0.52-0.17 1.05-0.32 1.59-0.46l0.45-0.11c0.52-0.12 1-0.23 1.57-0.32l0.39-0.06q0.65-0.1 1.31-0.16h0.69a236.15 236.15 0 0 0 220.68-235.86zM512 448.08a74.18 74.18 0 0 1-24-144.37V202a24 24 0 0 1 48 0V303.71a74.18 74.18 0 0 1-24 144.37z m0-100.37a26.19 26.19 0 1 0 26.19 26.19A26.22 26.22 0 0 0 512 347.71z"  horiz-adv-x="1024" />

    
    <glyph glyph-name="xinzengleibie14" unicode="&#59107;" d="M660.08 737H363.92a97.36 97.36 0 0 1-97.25-97.25v-511.5A97.36 97.36 0 0 1 363.92 31h296.16a97.36 97.36 0 0 1 97.25 97.25v511.5A97.36 97.36 0 0 1 660.08 737z m-296.16-48h296.16a49.31 49.31 0 0 0 49.25-49.25V253H314.71V639.75A49.31 49.31 0 0 0 363.92 689z m296.16-610H363.92a49.31 49.31 0 0 0-49.25 49.25V205h394.62v-76.76A49.31 49.31 0 0 0 660.08 79zM512 140.88m-35 0a35 35 0 1 1 70 0 35 35 0 1 1-70 0Z"  horiz-adv-x="1024" />

    
    <glyph glyph-name="xinzengleibie15" unicode="&#59108;" d="M402.54 445.79h-39.76v39.76a24 24 0 0 1-48 0v-39.77H275a24 24 0 0 1 0-48h39.77V358a24 24 0 0 1 48 0v39.79h39.77a24 24 0 0 1 0 48zM777.24 602.52H246.76A87.86 87.86 0 0 1 159 514.75v-261.5a87.86 87.86 0 0 1 87.76-87.76h48.54c44.46 0 86.11 23.3 108.7 60.8A71 71 0 0 0 465.28 261h93.44A71 71 0 0 0 620 226.29c22.59-37.5 64.24-60.8 108.7-60.8h48.54A87.86 87.86 0 0 1 865 253.25v261.5a87.86 87.86 0 0 1-87.76 87.77zM817 253.25a39.81 39.81 0 0 0-39.76-39.76H728.7c-27.73 0-53.62 14.39-67.58 37.57A119.42 119.42 0 0 1 558.72 309h-93.44a119.42 119.42 0 0 1-102.4-57.9c-14-23.17-39.85-37.57-67.58-37.57h-48.54A39.81 39.81 0 0 0 207 253.25v261.5a39.81 39.81 0 0 0 39.76 39.76h530.48A39.81 39.81 0 0 0 817 514.75zM626.061121 416.781293m-21.340482-21.340483a30.18 30.18 0 1 1 42.680965 42.680966 30.18 30.18 0 1 1-42.680965-42.680966ZM680.950586 361.898586m-21.340483-21.340483a30.18 30.18 0 1 1 42.680965 42.680965 30.18 30.18 0 1 1-42.680965-42.680965ZM680.948 471.660828m-21.340483-21.340482a30.18 30.18 0 1 1 42.680966 42.680965 30.18 30.18 0 1 1-42.680966-42.680965ZM735.83 416.78m-21.340483-21.340483a30.18 30.18 0 1 1 42.680966 42.680966 30.18 30.18 0 1 1-42.680966-42.680966Z"  horiz-adv-x="1024" />

    
    <glyph glyph-name="xinzengleibie16" unicode="&#59109;" d="M761.17 661.19h-38.6c-0.8 0-1.6 0-2.38-0.12q-1.18 0.12-2.4 0.12h-455a103.83 103.83 0 1 1 0-207.67H283a232.22 232.22 0 0 1 205-211.9v-86.83h-78a24 24 0 0 1 0-48h204a24 24 0 0 1 0 48h-78v86.35a232.2 232.2 0 0 1 209.81 212.39h15.36a103.83 103.83 0 1 1 0 207.67zM207 557.36a55.9 55.9 0 0 0 55.83 55.83h15.29l3.24-111.67h-18.53A55.9 55.9 0 0 0 207 557.36z m307.39-269.22c-101.55 0-184.17 82.62-184.17 184.18v0.7l-4.06 140.18h368.31l4.09-141.2c-0.18-101.42-82.73-183.86-184.17-183.86z m246.78 213.39h-15.44l-3.24 111.67h18.67a55.83 55.83 0 1 0 0-111.67z"  horiz-adv-x="1024" />

    
    <glyph glyph-name="xinzengleibie17" unicode="&#59110;" d="M722.51 31h-421a99.42 99.42 0 0 0-99.31 99.31V637.69A99.42 99.42 0 0 0 301.49 737h421a99.42 99.42 0 0 0 99.31-99.31v-507.38A99.42 99.42 0 0 0 722.51 31z m-421 658a51.37 51.37 0 0 1-51.31-51.31v-507.38A51.37 51.37 0 0 1 301.49 79h421a51.37 51.37 0 0 1 51.31 51.31V637.69A51.37 51.37 0 0 1 722.51 689zM512 404.09c-76.73 0-139.15 62.42-139.15 139.15a24 24 0 0 0 48 0 91.15 91.15 0 0 1 182.3 0 24 24 0 0 0 48 0c0-76.72-62.42-139.15-139.15-139.15z"  horiz-adv-x="1024" />

    
    <glyph glyph-name="zhifubaoxian" unicode="&#59111;" d="M771.41 591.89h-33.25v37.84a79.63 79.63 0 0 1-79.54 79.54H238.54A79.63 79.63 0 0 1 159 629.73v-477.4a93.7 93.7 0 0 1 93.59-93.59h518.82A93.7 93.7 0 0 1 865 152.33v346a93.7 93.7 0 0 1-93.59 93.56zM207 629.73a31.57 31.57 0 0 0 31.54 31.54h420.08a31.57 31.57 0 0 0 31.54-31.54v-37.84H238.54A31.57 31.57 0 0 0 207 623.42v6.31z m564.41-523H252.59a45.64 45.64 0 0 0-45.59 45.6V550.42a79.07 79.07 0 0 1 31.54-6.54h532.87A45.64 45.64 0 0 0 817 498.29V411H700.06a80.12 80.12 0 0 1-80-80v-6.36a80.12 80.12 0 0 1 80-80H817v-92.25a45.64 45.64 0 0 0-45.59-45.66zM817 292.58H700.06a32.07 32.07 0 0 0-32 32V331a32.07 32.07 0 0 0 32 32H817z"  horiz-adv-x="1024" />

    
    <glyph glyph-name="yingxiaoguanggao" unicode="&#59112;" d="M858.32 355.91l-145 285.81a61.56 61.56 0 0 1-90.92 22.06L299.46 430.73A61.26 61.26 0 0 1 280.59 353l89.14-175.71a61.23 61.23 0 0 1 54.69-33.76 62.16 62.16 0 0 1 19.21 3.06l12.87 4.18a74.76 74.76 0 0 1 88.9-36.08l78.43 25.2A74.79 74.79 0 0 1 675 221.65l147.43 47.85a61.56 61.56 0 0 1 35.89 86.4zM624.8 198.82a26.63 26.63 0 0 0-15.64-13.27l-78.43-25.2a26.82 26.82 0 0 0-26.43 5.89l123 39.93a26.91 26.91 0 0 0-2.5-7.35z m191.15 124a13.39 13.39 0 0 0-8.33-7.69l-378.8-123a13.49 13.49 0 0 0-16.28 6.87L323.4 374.68a13.49 13.49 0 0 0 4.16 17.13l322.93 233.05a13.23 13.23 0 0 0 7.86 2.57 13.94 13.94 0 0 0 3.27-0.39 13.4 13.4 0 0 0 8.89-7l145-285.81a13.4 13.4 0 0 0 0.44-11.37zM267.93 339.75a54.81 54.81 0 0 1-73.68 24.08l-5.25-2.65a54.88 54.88 0 0 1-24.08-73.68l83.68-164.92a54.73 54.73 0 0 1 73.68-24.08l5.23 2.65a54.81 54.81 0 0 1 24.08 73.68z m41.26-191.83a6.69 6.69 0 0 0-3.39-4l-5.23-2.65a6.81 6.81 0 0 0-9.16 3l-83.67 164.94a6.82 6.82 0 0 0 3 9.16L216 321a6.69 6.69 0 0 0 3.05 0.75 6.91 6.91 0 0 0 2.14-0.35 6.68 6.68 0 0 0 4-3.39l83.67-164.91a6.68 6.68 0 0 0 0.33-5.18z"  horiz-adv-x="1024" />

    
    <glyph glyph-name="bangonghangzheng" unicode="&#59113;" d="M823.09 303.5L568.3 558.28l-98.37 98.37c-71 71-186.57 71-257.58 0a182.14 182.14 0 0 1 0-257.58l334-334A24 24 0 1 1 580.34 99l-334 334a134.14 134.14 0 0 0 0 189.7c52.3 52.3 137.4 52.3 189.7 0l325.5-325.54 27.6-27.6a95.1 95.1 0 0 0-134.5-134.5L547.78 241.93l-41.84 41.84-106.07 106.07-53.07 53.07a56.07 56.07 0 0 0 79.3 79.29l288.73-288.74a24 24 0 1 1 33.94 33.94L460 556.16A104.07 104.07 0 0 1 312.84 409l201-201 106.87-106.88A143.1 143.1 0 0 1 823.09 303.5z"  horiz-adv-x="1024" />

    
    <glyph glyph-name="shouzhijizhang" unicode="&#59114;" d="M829.58 662.72l-50.47 50.48a81.37 81.37 0 0 1-114.93 0L271.34 320.37c-0.33-0.33-0.65-0.68-1-1l-0.28-0.32q-0.33-0.39-0.65-0.78l-0.27-0.35q-0.36-0.48-0.7-1l-0.12-0.17c-0.26-0.38-0.5-0.78-0.73-1.17l-0.21-0.38q-0.25-0.44-0.48-0.89l-0.21-0.42q-0.27-0.55-0.5-1.11l-0.08-0.18c-0.18-0.43-0.34-0.87-0.49-1.31l-0.13-0.41q-0.17-0.5-0.31-1l-0.08-0.26-32.86-122.76a58.05 58.05 0 0 1 55.73-73 58.93 58.93 0 0 1 15.27 2L426 148.75l0.32 0.1 0.69 0.21q0.69 0.22 1.36 0.48l0.59 0.22c0.58 0.24 1.15 0.51 1.71 0.79l0.64 0.35q0.68 0.37 1.32 0.78l0.46 0.29c0.56 0.37 1.1 0.78 1.63 1.2l0.43 0.35c0.55 0.46 1.09 0.94 1.6 1.45l323.76 323.74 69.05 69.05a81.36 81.36 0 0 1 0.02 114.96z m-409.8-456.85L371 254.63l-48.75 48.77 289.83 289.82 97.53-97.53z m-129-43.65a10 10 0 0 0-12.21 12.21L300.74 257l72.68-72.68z m504.86 419.51l-52.09-52.09L646 627.17l52.09 52.09a33.31 33.31 0 0 0 47.05 0l50.48-50.48a33.31 33.31 0 0 0 0.02-47.05zM760.14 79H194.61a24 24 0 0 1 0-48h565.53a24 24 0 0 1 0 48z"  horiz-adv-x="1024" />

    
    <glyph glyph-name="zijinshuifei" unicode="&#59115;" d="M196.31 44.31a24 24 0 0 0-17 41L811 716.93A24 24 0 0 0 844.93 683L213.28 51.34a23.93 23.93 0 0 0-16.97-7.03zM279.84 495.86a120.57 120.57 0 1 0 120.57 120.57 120.71 120.71 0 0 0-120.57-120.57z m0 193.14a72.57 72.57 0 1 1 72.57-72.57A72.65 72.65 0 0 1 279.84 689zM744.16 31a120.57 120.57 0 1 0 120.57 120.57A120.71 120.71 0 0 0 744.16 31z m0 193.14a72.57 72.57 0 1 1 72.57-72.57 72.65 72.65 0 0 1-72.57 72.57z"  horiz-adv-x="1024" />

    
    <glyph glyph-name="xiaoshougongguan" unicode="&#59116;" d="M579.31 31a90.73 90.73 0 0 0-64.58 26.75l-324.5 324.5a107.22 107.22 0 0 0-31.22 77l2.75 185a91.33 91.33 0 0 0 90 90l185 2.75a107.21 107.21 0 0 0 77-31.22l324.5-324.5a91.43 91.43 0 0 0 0-129.16L643.89 57.75A90.73 90.73 0 0 0 579.31 31z m-141 658h-0.85l-185-2.75a43.12 43.12 0 0 1-42.68-42.68l-2.75-185a59 59 0 0 1 17.17-42.34l324.5-324.5a43.33 43.33 0 0 1 61.28 0L804.31 286a43.38 43.38 0 0 1 0 61.28l-324.5 324.5A59 59 0 0 1 438.33 689z m-252.56-45.08zM354.09 447.26A94.65 94.65 0 1 0 421 475a94 94 0 0 0-66.91-27.74z m0 141.3a46.65 46.65 0 1 1 33-13.66 46.34 46.34 0 0 1-33 13.66zM626.45 245.55a23.93 23.93 0 0 0-17 7L463.84 398.22a24 24 0 0 0 33.94 33.94l145.64-145.64a24 24 0 0 0-17-41z"  horiz-adv-x="1024" />

    
    <glyph glyph-name="richangzafei" unicode="&#59117;" d="M767.75 644.5H676.5v23a24 24 0 0 1-48 0v-23h-233v23a24 24 0 0 1-48 0v-23h-91.25A97.36 97.36 0 0 1 159 547.25v-373.5a97.36 97.36 0 0 1 97.25-97.25h511.5A97.36 97.36 0 0 1 865 173.75v373.5a97.36 97.36 0 0 1-97.25 97.25zM817 173.75a49.31 49.31 0 0 0-49.25-49.25h-511.5A49.31 49.31 0 0 0 207 173.75v373.5a49.31 49.31 0 0 0 49.25 49.25h91.25v-24a24 24 0 0 1 48 0v24h233v-24a24 24 0 0 1 48 0v24h91.25A49.31 49.31 0 0 0 817 547.25zM686 463H338a24 24 0 0 1 0-48h348a24 24 0 0 1 0 48zM686 306H338a24 24 0 0 1 0-48h348a24 24 0 0 1 0 48z"  horiz-adv-x="1024" />

    
    <glyph glyph-name="zujinshuidian" unicode="&#59118;" d="M492.47 172.24a35.25 35.25 0 0 0-12 2.1A34.38 34.38 0 0 0 457.6 207v73.85H430a34.12 34.12 0 0 0-32 23c-3.82 11.48-2.35 23.13 4.13 32.84l0.45 0.65 100.49 140.13q0.51 0.71 1.07 1.38a35.65 35.65 0 0 0 39.41 10.7 34.38 34.38 0 0 0 22.86-32.67V383h26.23a34.75 34.75 0 0 0 29.22-54.5l-0.4-0.58L521 186.51q-0.53-0.75-1.13-1.46a35.69 35.69 0 0 0-27.4-12.81z m-36.89 156.6H471a34.62 34.62 0 0 0 34.58-34.58v-46.54l62 87.31H553c-8.32 0-14.81 3.25-18.68 5.19a24 24 0 0 0-6.22 4.49c-9.67 9.67-9.67 20.74-9.67 24.9v46.87zM592.64 335zM512 31a288.32 288.32 0 0 0-288.39 288.39c0 40.17 9.12 82 27.1 124.46 15.06 35.51 36.8 72.44 64.62 109.77 50 67.13 109.61 122.88 153.11 163.59l4.69 4.39 0.35 0.32c22.67 20.4 56.75 20.1 77.74-0.64q5.7-5.44 11.83-11.24c88.77-84.22 237.36-225.18 237.36-390.65 0-77.38-29.9-149.9-84.2-204.19S589.38 31 512 31z m-6.29 655.35l-4.48-4.19c-42.18-39.47-99.94-93.53-147.42-157.22-25.53-34.25-45.35-67.84-58.91-99.82-15.46-36.46-23.29-72-23.29-105.73A240.32 240.32 0 0 1 512 79c64.56 0 125 24.91 170.25 70.14s70.14 105.69 70.14 170.25c0 144.85-139.21 276.92-222.39 355.83q-6.25 5.93-12.09 11.48l-0.41 0.4c-2.78 2.79-8.14 2.43-11.79-0.75z"  horiz-adv-x="1024" />

    
    <glyph glyph-name="wuliurengong" unicode="&#59119;" d="M183 117.64a24 24 0 0 0-24 24V392.82c0 44.11 29.48 88.26 68.58 102.71L338 536.41c3.28 1.36 9.44 9.91 9.47 15.59l0.16 61.87c0.16 50.06 38.64 90.83 85.77 90.89l345.85 0.17c23.31 0 45-9.73 61.3-27.4 13.7-14.85 24.44-37.13 24.44-50.7v-474.31a24 24 0 0 0-48 0v472.6A59.6 59.6 0 0 1 805.24 645c-7.07 7.69-16.26 11.92-25.89 11.92l-345.9-0.17c-20.77 0-37.74-19.33-37.82-43l-0.16-61.92c-0.13-25.07-18.44-52.14-40.81-60.42l-110.43-40.9C224 443.05 207 416.64 207 392.82v-251.18a24 24 0 0 0-24-24zM362.58 63.06a81.22 81.22 0 1 0 81.22 81.22 81.31 81.31 0 0 0-81.22-81.22z m0 114.44a33.22 33.22 0 1 1 33.22-33.21 33.25 33.25 0 0 1-33.22 33.2zM668.46 63.06a81.22 81.22 0 1 0 81.22 81.22 81.31 81.31 0 0 0-81.22-81.22z m0 114.44a33.22 33.22 0 1 1 33.22-33.21 33.25 33.25 0 0 1-33.22 33.2zM381.42 270.84H271.75a24 24 0 0 0 0 48h85.67V406.9a24 24 0 0 0 48 0v-112.06a24 24 0 0 0-24-24z"  horiz-adv-x="1024" />

    
    <glyph glyph-name="wangluoxiaoshou" unicode="&#59120;" d="M837.25 521.41A354.09 354.09 0 1 1 865 384a351.79 351.79 0 0 1-27.75 137.41zM775.1 229.5c-35.32 7-72.58 12.49-111 16.49a731.68 731.68 0 0 1 12.09 114h139.87A302.21 302.21 0 0 0 775.1 229.5zM549.8 97.91C537.13 85.36 524.42 79 512 79s-25.13 6.36-37.8 18.91c-14.31 14.17-28 35.92-39.48 62.88a396.39 396.39 0 0 0-15.07 42c30.35 1.93 61.25 2.92 92.35 2.92s62-1 92.35-2.92a396.38 396.38 0 0 0-15.07-42c-11.52-26.97-25.17-48.71-39.48-62.88zM512 253.75c-35 0-69.86-1.22-104-3.6A677.19 677.19 0 0 0 395.88 360h232.24A677.19 677.19 0 0 0 616 250.15c-34.14 2.38-69 3.6-104 3.6zM207.94 360h139.92A731.67 731.67 0 0 1 360 246c-38.47-4-75.73-9.52-111-16.49A302.21 302.21 0 0 0 207.94 360z m41 178.5c35.32-7 72.58-12.49 111-16.49a731.68 731.68 0 0 1-12.09-114H207.94A302.21 302.21 0 0 0 248.9 538.5zM474.2 670.09C486.87 682.64 499.58 689 512 689s25.13-6.36 37.8-18.91c14.31-14.17 28-35.92 39.48-62.88a396.38 396.38 0 0 0 15.07-42c-30.35-1.93-61.25-2.92-92.35-2.92s-62 1-92.35 2.92a396.38 396.38 0 0 0 15.07 42c11.52 26.97 25.17 48.71 39.48 62.88zM512 514.25c35 0 69.86 1.22 104 3.6A677.19 677.19 0 0 0 628.12 408H395.88A677.19 677.19 0 0 0 408 517.85c34.14-2.38 69-3.6 104-3.6zM676.14 408A731.68 731.68 0 0 1 664 522c38.47 4 75.73 9.52 111 16.49a302.21 302.21 0 0 0 41-130.5z m51.53 191.67q8.75-8.75 16.68-18.07c-29.3-5.17-59.85-9.33-91.23-12.45a454.29 454.29 0 0 1-19.7 56.93 300.06 300.06 0 0 1-25.14 47.5 303.71 303.71 0 0 0 119.39-73.91z m-312 73.89a300.06 300.06 0 0 1-25.14-47.5 454.29 454.29 0 0 1-19.7-56.93c-31.38 3.12-61.93 7.29-91.23 12.45q7.94 9.31 16.68 18.07a303.71 303.71 0 0 0 119.44 73.91zM296.33 168.33q-8.75 8.75-16.68 18.07c29.3 5.17 59.85 9.33 91.23 12.45a454.29 454.29 0 0 1 19.7-56.93 300.06 300.06 0 0 1 25.14-47.5 303.71 303.71 0 0 0-119.39 73.91z m312-73.89a300.06 300.06 0 0 1 25.14 47.5 454.29 454.29 0 0 1 19.7 56.93c31.38-3.12 61.93-7.29 91.23-12.45q-7.94-9.31-16.68-18.07a303.71 303.71 0 0 0-119.44-73.91z"  horiz-adv-x="1024" />

    
    <glyph glyph-name="gongzijiangjin" unicode="&#59121;" d="M804.17 530.24a313.86 313.86 0 0 1-149.55 110.41c-23 56.2-78.25 95.9-142.62 95.9s-119.64-39.7-142.62-95.9a313.29 313.29 0 0 1 102.87-609.21h79.49a313.28 313.28 0 0 1 252.43 498.8zM512 688.56A106.06 106.06 0 0 0 610 542H414a106.06 106.06 0 0 0 98 146.6z m227.31-531.43a263.52 263.52 0 0 0-187.56-77.69h-79.5A265.33 265.33 0 0 0 358 584.19v-1.64a154.42 154.42 0 0 1 5.43-40.55h-5a24 24 0 0 1 0-48h307.15a24 24 0 0 1 0 48h-5a154.42 154.42 0 0 1 5.42 40.54v1.64a265.35 265.35 0 0 0 73.31-427.05zM602.92 290.61a24 24 0 1 1 0 48H421.08a24 24 0 1 1 0-48H488V261h-66.92a24 24 0 1 1 0-48H488v-59.6a24 24 0 1 1 48 0V213h66.92a24 24 0 0 1 0 48H536v29.61zM457.27 351.8a24 24 0 0 1 24 24V412a24 24 0 0 1-48 0v-36.2a24 24 0 0 1 24-24zM566.73 351.8a24 24 0 0 1 24 24V412a24 24 0 1 1-48 0v-36.2a24 24 0 0 1 24-24z"  horiz-adv-x="1024" />

    
    <glyph glyph-name="yewushouru" unicode="&#59122;" d="M704.62 701.65C652.77 724.45 584.36 737 512 737s-140.77-12.55-192.62-35.35c-58.12-25.55-90.12-61.92-90.12-102.41v-430.48c0-40.49 32-76.86 90.12-102.41C371.23 43.55 439.64 31 512 31s140.77 12.55 192.62 35.35c58.12 25.55 90.12 61.92 90.12 102.41V599.24c0 40.49-32.01 76.86-90.12 102.41z m42.12-389.4c0-19.7-23-41.55-61.44-58.47-45.9-20.17-107.44-31.28-173.3-31.28s-127.4 11.11-173.3 31.29c-38.47 16.92-61.44 38.77-61.44 58.47v64.65a232.87 232.87 0 0 1 42.12-23.57C371.23 330.55 439.64 318 512 318s140.77 12.55 192.62 35.35a232.87 232.87 0 0 1 42.12 23.57z m0 143.5c0-19.7-23-41.55-61.44-58.47C639.4 377.1 577.86 366 512 366s-127.4 11.1-173.3 31.28c-38.47 16.92-61.44 38.77-61.44 58.47V520.4a232.87 232.87 0 0 1 42.12-23.57C371.23 474 439.64 461.49 512 461.49S652.77 474 704.62 496.84a232.87 232.87 0 0 1 42.12 23.57z m-408 202C384.6 677.89 446.14 689 512 689s127.4-11.11 173.3-31.29c38.47-16.92 61.44-38.77 61.44-58.47s-23-41.55-61.44-58.47c-45.9-20.17-107.44-31.28-173.3-31.28s-127.4 11.11-173.3 31.29c-38.47 16.92-61.44 38.77-61.44 58.47s22.97 41.55 61.44 58.46zM685.3 110.29C639.4 90.11 577.86 79 512 79s-127.4 11.11-173.3 31.29c-38.47 16.92-61.44 38.77-61.44 58.47v64.65a232.87 232.87 0 0 1 42.12-23.57C371.23 187 439.64 174.5 512 174.5s140.77 12.5 192.62 35.34a232.87 232.87 0 0 1 42.12 23.57v-64.65c0-19.7-22.97-41.56-61.44-58.47z"  horiz-adv-x="1024" />

    
    <glyph glyph-name="qitashouru" unicode="&#59123;" d="M667 619.2H239.17A80.26 80.26 0 0 1 159 539v-427.83A80.26 80.26 0 0 1 239.17 31H667a80.26 80.26 0 0 1 80.17 80.17V539A80.26 80.26 0 0 1 667 619.2z m32.17-508A32.21 32.21 0 0 0 667 79H239.17A32.21 32.21 0 0 0 207 111.17V539a32.21 32.21 0 0 0 32.17 32.17H667A32.21 32.21 0 0 0 699.2 539zM300.8 632.83a24 24 0 0 1 24 24 32.15 32.15 0 0 0 7.81 21 24 24 0 1 1-36.32 31.39 80.16 80.16 0 0 1-19.5-52.4 24 24 0 0 1 24.01-23.99zM600 689h83.23a24 24 0 0 1 0 48H600a24 24 0 0 1 0-48zM412.78 689H496a24 24 0 0 1 0 48h-83.22a24 24 0 0 1 0-48zM841 392.09a24 24 0 0 1-24-24v-83.23a24 24 0 1 1 48 0v83.23a24 24 0 0 1-24 24zM786.26 689A32.35 32.35 0 0 0 817 658.31a24 24 0 0 1 24-22.92h1.09a24 24 0 0 1 22.9 25.05 80.17 80.17 0 0 1-76.57 76.46 24 24 0 1 1-2.08-48zM841 579.36a24 24 0 0 1-24-24v-83.23a24 24 0 0 1 48 0v83.23a24 24 0 0 1-24 24zM805.85 204.61a32.15 32.15 0 0 0-21-7.81 24 24 0 1 1 0-48 80.16 80.16 0 0 1 52.4 19.5 24 24 0 1 1-31.39 36.32zM558.6 338.1a24 24 0 1 1 0 48h-211a24 24 0 0 1 0-48h81.5v-42h-81.5a24 24 0 0 1 0-48h81.5v-73a24 24 0 0 1 48 0v73h81.5a24 24 0 0 1 0 48h-81.5v42zM389.6 409.1a24 24 0 0 1 24 24v42a24 24 0 0 1-48 0v-42a24 24 0 0 1 24-24zM516.6 409.1a24 24 0 0 1 24 24v42a24 24 0 1 1-48 0v-42a24 24 0 0 1 24-24z"  horiz-adv-x="1024" />

    
    <glyph glyph-name="lingshou" unicode="&#59124;" d="M841 476.08h-48.33l-173 173a24 24 0 1 1-33.94-33.94l139-139H299.31l139 139a24 24 0 1 1-33.94 33.94l-173-173H183a24 24 0 0 1 0-48h37.62L262 179.28c3.16-19 14.42-36.45 31.7-49.06a96.45 96.45 0 0 1 56.47-18.31h323.71a96.45 96.45 0 0 1 56.47 18.31c17.28 12.61 28.54 30 31.7 49.06l41.33 248.8H841a24 24 0 0 1 0 48zM714.69 187.15c-2.41-14.51-21.48-27.24-40.81-27.24H350.12c-19.33 0-38.4 12.73-40.81 27.24l-40 240.93h485.41zM631.6 317.82H392.4a24 24 0 0 1 0-48h239.2a24 24 0 1 1 0 48z"  horiz-adv-x="1024" />

    
    <glyph glyph-name="daikuan" unicode="&#59125;" d="M818.2 417.46a560.3 560.3 0 0 1-65.38 85c21.78 23.6 32.79 48.26 32.79 73.53 0 26.21-10.38 52-30 74.52-15.63 18-36.86 33.86-63.12 47.19C642.5 723 578.41 737 512 737s-130.51-14-180.41-39.3c-26.25-13.33-47.48-29.2-63.09-47.16-19.64-22.55-30-48.33-30-74.55 0-25.38 11-50 32.76-73.57a560.24 560.24 0 0 1-65.35-84.93C175.21 368 159 320.37 159 279.67a177.79 177.79 0 0 1 0.92-17.82c0.11-1.07 0.18-1.82 0.23-2.4a83.73 83.73 0 0 1 1.22-8.55 185 185 0 0 1 15.84-50l0.19-0.4c0.67-1.33 1.46-2.84 2.48-4.46C198.76 158 238.21 106 319.34 71.54l1.27-0.54a432.63 432.63 0 0 1 51.14-19.42A477.75 477.75 0 0 1 512 31c90 0 175.88 24 241.73 67.67 33.44 22.17 60.12 48.33 79.27 77.7 21.2 32.6 32 67.35 32 103.31 0 40.64-16.18 88.32-46.8 137.78z m-25.37-214.89c-15.58-23.86-37.66-45.36-65.62-63.89C669.14 100.2 592.71 79 512 79a429.7 429.7 0 0 0-126.09 18.44 383.92 383.92 0 0 0-45.61 17.33l-0.54 0.24-1.6 0.68c-68.56 29.09-100.81 72-115.81 102.82a24.06 24.06 0 0 1-1.8 3.1l-0.13 0.25a137 137 0 0 0-11.69 36.9v0.21a48.15 48.15 0 0 0-0.75 4.91c-0.06 0.67-0.14 1.54-0.26 2.75a130.18 130.18 0 0 0-0.68 13c0 31.76 13.72 70.66 39.68 112.52 19.61 31.63 45.74 64.14 75.56 94a24 24 0 0 1-1.52 35.3C298 540.68 286.47 559 286.47 576c0 14.46 6.3 29.33 18.24 43 11.55 13.29 27.9 25.36 48.61 35.87C396.62 676.89 453 689 512 689s115.39-12.11 158.75-34.1c20.7-10.51 37.05-22.58 48.62-35.89 11.92-13.69 18.23-28.56 18.23-43 0-16.88-11.54-35.22-34.29-54.51a24 24 0 0 1-1.47-35.26c29.8-29.87 55.93-62.38 75.54-94C803.3 350.31 817 311.4 817 279.67c0-26.5-8.14-52.45-24.17-77.1zM617.5 355a24 24 0 0 1 0 48h-211a24 24 0 0 1 0-48H488v-42h-81.5a24 24 0 0 1 0-48H488v-73a24 24 0 0 1 48 0v73h81.5a24 24 0 0 1 0 48H536v42zM448.5 426a24 24 0 0 1 24 24v42a24 24 0 0 1-48 0v-42a24 24 0 0 1 24-24zM575.5 426a24 24 0 0 1 24 24v42a24 24 0 0 1-48 0v-42a24 24 0 0 1 24-24z"  horiz-adv-x="1024" />

    
    <glyph glyph-name="yunweifeiyong" unicode="&#59126;" d="M668.5 127.53a275.87 275.87 0 0 0-313.27 0.5 277.46 277.46 0 0 0-35.32 29.15 82.77 82.77 0 0 1-101.82 123.54H218c-2.37-1.1-4.55-2.22-6.66-3.44a82.79 82.79 0 0 1 70-149.39 325.63 325.63 0 0 1 46.57-39.25 323.87 323.87 0 0 1 367.86-0.58 24 24 0 1 1-27.23 39.53z m-445.9 60.62a34.78 34.78 0 0 0 12.73 47.51c0.85 0.49 1.78 1 2.84 1.46a34.77 34.77 0 0 0 34.58-60c-0.95-0.67-1.81-1.22-2.63-1.69a34.82 34.82 0 0 0-47.51 12.72zM213.29 307.18q0.94 0 1.89 0.07A24 24 0 0 1 237.24 333c-0.57 7.26-0.85 14.59-0.85 21.79a275.82 275.82 0 0 0 200.78 265.53 82.77 82.77 0 0 1 157.95 26.39c0.24 2.61 0.35 5.07 0.35 7.51a82.77 82.77 0 0 1-164.32 14.19 323.84 323.84 0 0 1-242.76-313.57c0-8.44 0.34-17 1-25.52a24 24 0 0 1 23.9-22.14zM512.68 689a34.82 34.82 0 0 0 34.78-34.78c0-1-0.05-2-0.16-3.19a34.57 34.57 0 0 0-34.63-31.59 35 35 0 0 0-34.63 31.69c-0.1 1.15-0.15 2.16-0.15 3.09A34.82 34.82 0 0 0 512.68 689zM851.23 226.18a82.16 82.16 0 0 1-26.9 42.11 323.22 323.22 0 0 1 10.65 60c0.72 8.88 1.09 17.79 1.09 26.51a323.86 323.86 0 0 1-184.5 292.39 24 24 0 0 1-20.68-43.32 275.86 275.86 0 0 0 157.17-249.03c0-7.42-0.31-15-0.93-22.62a275.29 275.29 0 0 0-7.47-45.11 82.77 82.77 0 0 1-56.19-149.93c2.16-1.52 4.25-2.87 6.4-4.11a82.78 82.78 0 0 1 121.35 93.12z m-49.84-38.82a34.82 34.82 0 0 0-47.51-12.73c-0.87 0.5-1.76 1.08-2.72 1.75a34.58 34.58 0 0 0-10 45.76 35 35 0 0 0 44.77 14.14c1-0.49 1.94-0.95 2.74-1.41a34.78 34.78 0 0 0 12.73-47.51z"  horiz-adv-x="1024" />

    
    <glyph glyph-name="yingyeshouru" unicode="&#59127;" d="M776.75 505h-43.1c-0.37 0.29-0.76 0.57-1.15 0.84L595.39 599.2a87 87 0 1 1-167.72 3.47L291.49 510a24 24 0 0 1-5.32-5h-38.92A88.35 88.35 0 0 1 159 416.75v-271.5A88.35 88.35 0 0 1 247.25 57h529.5A88.35 88.35 0 0 1 865 145.25v271.5A88.35 88.35 0 0 1 776.75 505zM512 663a39 39 0 0 0 33.07-59.66 39 39 0 0 0-67.21 1.81A38.45 38.45 0 0 0 473 624a39 39 0 0 0 39 39z m-60.09-101.9a87 87 0 0 1 117.65-2.39L648.45 505H369.51zM817 145.25A40.29 40.29 0 0 0 776.75 105h-529.5A40.29 40.29 0 0 0 207 145.25v271.5A40.29 40.29 0 0 0 247.25 457h529.5A40.29 40.29 0 0 0 817 416.75zM301.67 416.5a66.21 66.21 0 0 1-66.13-66.13v-138.74a66.13 66.13 0 0 1 132.27 0V350.37a66.21 66.21 0 0 1-66.14 66.13z m18.13-204.87a18.13 18.13 0 1 0-36.27 0V350.37a18.13 18.13 0 1 0 36.27 0zM722.33 416.5a66.21 66.21 0 0 1-66.13-66.13V169.5a24 24 0 0 1 48 0V350.37a18.13 18.13 0 1 0 36.27 0V169.5a24 24 0 0 1 48 0V350.37a66.21 66.21 0 0 1-66.14 66.13zM455.93 416.5a66.21 66.21 0 0 1-66.13-66.13V169.5a24 24 0 0 1 48 0v42.21a23.94 23.94 0 0 1 18.13-8.28 66.21 66.21 0 0 1 66.13 66.13v80.8a66.21 66.21 0 0 1-66.13 66.14z m18.13-146.93a18.15 18.15 0 0 0-18.13-18.13 23.94 23.94 0 0 1-18.13-8.28V350.37a18.13 18.13 0 1 0 36.27 0zM610.2 257.5a24 24 0 0 1 0 48h-18.13v44.87a18.15 18.15 0 0 0 18.13 18.13 24 24 0 0 1 0 48 66.21 66.21 0 0 1-66.13-66.13v-138.74a66.21 66.21 0 0 1 66.13-66.13 24 24 0 0 1 0 48 18.15 18.15 0 0 0-18.13 18.13V257.5z"  horiz-adv-x="1024" />

    
    <glyph glyph-name="baifenbi" unicode="&#59224;" d="M510.916 876.666c66.359 0 130.75199999-13.005 191.38899999-38.651 58.552-24.766 111.129-60.212 156.27100001-105.354 45.143-45.143 80.589-97.72 105.354-156.271C989.57699999 515.752 1002.582 451.359 1002.582 385c0-66.359-13.004-130.751-38.652-191.389-24.765-58.551-60.211-111.128-105.354-156.271s-97.72-80.589-156.27100001-105.354c-60.638-25.647-125.03-38.652-191.38999999-38.652s-130.752 13.004-191.389 38.652c-58.552 24.765-111.129 60.211-156.271 105.354s-80.589 97.72-105.354 156.271c-25.647 60.638-38.652 125.03-38.65200001 191.389 0 66.359 13.005 130.75199999 38.65200001 191.39 24.765 58.552 60.211 111.128 105.354 156.271s97.72 80.589 156.271 105.354c60.638 25.646 125.03 38.651 191.39 38.651z m-1e-8-913.332C743.423-36.666000000000054 932.582 152.49200000999997 932.582 385.00000001s-189.159 421.666-421.666 421.66599999c-232.508 0-421.666-189.158-421.666-421.666S278.40799999-36.666000000000054 510.91599999-36.666000000000054zM510.916 881.66600001c22.091 0 40-17.908 40-40.00000001s-17.909-40-40-40c-229.75 0-416.666-186.916-416.666-416.666S281.166-31.666000000000054 510.916-31.666000000000054c150.37099999 0 289.631 81.51 363.435 212.721 10.83 19.255 35.219 26.084 54.47300001 15.253 19.254-10.83000001 26.083-35.219 15.25299999-54.473-42.489-75.539-104.288-138.976-178.715-183.45499999-76.682-45.825-164.667-70.047-254.446-70.04700001-67.031 0-132.07999999 13.137-193.337 39.047-59.147 25.018-112.259 60.824-157.858 106.423-45.601 45.6-81.406 98.711-106.424 157.859-25.91 61.258-39.047 126.306-39.047 193.33800001s13.138 132.08 39.047 193.33799999c25.018 59.147 60.823 112.259 106.424 157.858 45.6 45.6 98.711 81.406 157.858 106.42300001 61.257 25.909 126.306 39.047 193.337 39.047z"  horiz-adv-x="1024" />

    
    <glyph glyph-name="baifenbihuanxingtu-copy" unicode="&#59225;" d="M90.14009434 303.5312483C57.75460377 439.72001436 93.67562825 583.12126958 186.37732726 687.98520523c92.77240969 104.93464633 230.65823202 158.25049763 369.81684656 142.8355698 13.36431816-1.6263456 25.5265548-8.4145707 33.87041482-19.02117241 8.34386002-10.60660172 12.02081528-24.04163056 10.39446969-37.40594873-3.39411255-27.29432175-28.07213921-46.88117959-55.43717165-43.98204179-38.18376618 4.38406204-76.86250711 1.90918831-114.12703448-7.21248916-143.68409794-35.35533906-245.9317385-162.35171696-249.8208258-310.34916627C177.18493911 264.99392873 272.71506525 132.83567131999996 414.27784284 89.98500037999997c141.63348827-42.77996026 294.36855301 14.35426766 373.06953775 139.58287861 78.70098475 125.22861095 63.9931637 287.72174926-35.99173516 396.75761492-18.45548699 20.71822869-16.82914139 52.32590181 3.67695526 70.99352083 10.25304833 9.26309883 23.97091988 13.93000359 37.8302128 12.79863274 13.78858223-1.06066017 26.58721497-7.77817459 35.28462838-18.59690834 47.58828637-53.24514062 80.96372645-117.59185771 97.01505038-187.1994543 55.578593-230.65823202-86.33773798-462.51854557-316.99597001-517.95571722-230.58752134-55.50788232-462.58925625 86.40844866-518.0264279 317.06668068z m0 0"  horiz-adv-x="1024" />

    
    <glyph glyph-name="qingchu" unicode="&#59226;" d="M750.29498526 610.98127676c-128.48130214 128.48130214-336.79495988 128.48130214-465.27626202 0s-128.48130214-336.79495988 0-465.27626202 336.79495988-128.48130214 465.27626202 0 128.48130214 336.79495988 0 465.27626202z m-147.78531727-359.91735162L517.65685425 335.91673888l-84.85281374-84.85281374a30 30 0 0 0-42.42640687 42.42640687L475.23044738 378.34314574999996 390.37763364 463.19595949a30 30 0 0 0 42.42640687 42.42640687l84.85281374-84.85281374L602.50966799 505.62236636a30 30 0 0 0 42.42640687-42.42640687l-84.85281374-84.85281374 84.85281374-84.85281374a30 30 0 0 0-42.42640687-42.42640687z"  horiz-adv-x="1024" />

    


  </font>
</defs>
</svg>
